<?xml version="1.0" standalone="no"?>
  <!DOCTYPE svg PUBLIC "-//W3C//DTD SVG 1.1//EN" "http://www.w3.org/Graphics/SVG/1.1/DTD/svg11.dtd" >
  <svg>
  <metadata>
  Created by font-carrier
  </metadata>
  <defs>
  <font id="ProbaPro-Regular" horiz-adv-x="1250" vert-adv-y="1250" >
    <font-face
      
      font-family="Proba Pro"
      
      font-weight="400"
      
      font-stretch="normal"
      
      units-per-em="1000"
      
      ascent="750"
      
      descent="-250"
      
    />
      <missing-glyph />

      

      
      <glyph glyph-name="uni21" unicode="&#x21;" d="M74.50 6.50Q74.50 6.50 67.25 13.75Q60 21 60 42Q60 63 74.50 77.50Q89 92 110 92Q131 92 145.50 77.50Q160 63 160 42Q160 21 145.50 6.50Q131-8 110-8Q89-8 74.50 6.50M72 192L72 700L147 700L147 192L72 192Z"  horiz-adv-x="220" vert-adv-y="1000"  />

      
      <glyph glyph-name="uni22" unicode="&#x22;" d="M72 450L72 700L137 700L137 450L72 450M227 450L227 700L292 700L292 450L227 450Z"  horiz-adv-x="365" vert-adv-y="1000"  />

      
      <glyph glyph-name="uni23" unicode="&#x23;" d="M332 0L360 175L190 175L163 0L87 0L115 175L40 175L40 235L124 235L160 465L76 465L76 525L169 525L197 700L273 700L244 525L414 525L442 700L518 700L489 525L566 525L566 465L481 465L444 235L531 235L531 175L435 175L408 0L332 0M236 465L199 235L369 235L405 465L236 465Z"  horiz-adv-x="606" vert-adv-y="1000"  />

      
      <glyph glyph-name="uni24" unicode="&#x24;" d="M245-100L245-7Q122 1 46 85L94 134Q152 69 245 62L245 322Q212 335 191 344Q170 353 143 370.50Q116 388 100 406.50Q84 425 73 454Q62 483 62 518Q62 594 109 648.50Q156 703 245 707L245 800L290 800L290 705Q393 694 461 624L412 575Q365 625 290 635L290 387Q328 372 346 364Q364 356 395 338Q426 320 441 302.50Q456 285 468.50 256.50Q481 228 481 193Q481 116 431.50 58Q382 0 290-7L290-100L245-100M401 191Q401 232 372.50 257Q344 282 290 304L290 64Q345 74 373 111.50Q401 149 401 191M168 595.50Q168 595.50 155 578.25Q142 561 142 520Q142 479 168.50 452.50Q195 426 245 405L245 636Q194 630 168 595.50Z"  horiz-adv-x="541" vert-adv-y="1000"  />

      
      <glyph glyph-name="uni25" unicode="&#x25;" d="M206 0L575 700L651 700L283 0L206 0M87 414Q87 414 63.50 437.50Q40 461 40 537Q40 613 87 660Q134 707 210 707Q286 707 333 660Q380 613 380 537Q380 461 333 414Q286 367 210 367Q134 367 87 414M135.50 618.50Q135.50 618.50 121.25 602.75Q107 587 107 537Q107 487 135.50 456Q164 425 210 425Q255 425 283.50 456.50Q312 488 312 537Q312 587 283.50 618.50Q255 650 210 650Q164 650 135.50 618.50M524 39Q524 39 500.50 62.50Q477 86 477 162Q477 238 524 285Q571 332 647 332Q723 332 770 285Q817 238 817 162Q817 86 770 39Q723-8 647-8Q571-8 524 39M545 162Q545 113 573.50 81.50Q602 50 647 50Q693 50 721.50 81Q750 112 750 162Q750 212 721.50 243.50Q693 275 647 275Q602 275 573.50 243.50Q545 212 545 162Z"  horiz-adv-x="857" vert-adv-y="1000"  />

      
      <glyph glyph-name="uni26" unicode="&#x26;" d="M340 348L340 412L567 412L567 348L492 348L492 203Q492 109 431 50.50Q370-8 272-8Q174-8 113 50.50Q52 109 52 203Q52 267 82.50 313.50Q113 360 167 381Q82 424 82 526Q82 606 134.50 656.50Q187 707 272 707Q357 707 409.50 656.50Q462 606 462 526L385 526Q385 576 353.50 608Q322 640 272 640Q223 640 191.50 608Q160 576 160 526Q160 476 191.50 444Q223 412 272 412L300 412L300 348L272 348Q209 348 169.50 307.50Q130 267 130 203Q130 139 169.50 99.50Q209 60 272 60Q336 60 375.50 99.50Q415 139 415 203L415 348L340 348Z"  horiz-adv-x="612" vert-adv-y="1000"  />

      
      <glyph glyph-name="uni27" unicode="&#x27;" d="M72 450L72 700L137 700L137 450L72 450Z"  horiz-adv-x="210" vert-adv-y="1000"  />

      
      <glyph glyph-name="uni28" unicode="&#x28;" d="M252 757L252 700Q206 700 171.50 572Q137 444 137 250Q137 56 171.50-72Q206-200 252-200L252-258Q172-258 116-115Q60 28 60 250Q60 472 116 614.50Q172 757 252 757Z"  horiz-adv-x="297" vert-adv-y="1000"  />

      
      <glyph glyph-name="uni29" unicode="&#x29;" d="M45 700L45 757Q125 757 181 614.50Q237 472 237 250Q237 28 181-115Q125-258 45-258L45-200Q91-200 125.50-72Q160 56 160 250Q160 444 125.50 572Q91 700 45 700Z"  horiz-adv-x="297" vert-adv-y="1000"  />

      
      <glyph glyph-name="uni2a" unicode="&#x2a;" d="M223 474L141 361L96 395L177 507L45 550L63 604L194 561L194 700L251 700L251 561L383 605L401 551L268 507L351 394L304 361L223 474Z"  horiz-adv-x="446" vert-adv-y="1000"  />

      
      <glyph glyph-name="uni2b" unicode="&#x2b;" d="M60 262L60 322L187 322L187 450L247 450L247 322L375 322L375 262L247 262L247 135L187 135L187 262L60 262Z"  horiz-adv-x="435" vert-adv-y="1000"  />

      
      <glyph glyph-name="uni2c" unicode="&#x2c;" d="M81-107L55-80Q94-39 102-7Q84-4 72 9.50Q60 23 60 42Q60 63 74.50 77.50Q89 92 110 92Q131 92 145.50 78Q160 64 160 34Q160-28 81-107Z"  horiz-adv-x="220" vert-adv-y="1000"  />

      
      <glyph glyph-name="uni2d" unicode="&#x2d;" d="M60 235L60 295L280 295L280 235L60 235Z"  horiz-adv-x="340" vert-adv-y="1000"  />

      
      <glyph glyph-name="uni2e" unicode="&#x2e;" d="M74.50 6.50Q74.50 6.50 67.25 13.75Q60 21 60 42Q60 63 74.50 77.50Q89 92 110 92Q131 92 145.50 77.50Q160 63 160 42Q160 21 145.50 6.50Q131-8 110-8Q89-8 74.50 6.50Z"  horiz-adv-x="220" vert-adv-y="1000"  />

      
      <glyph glyph-name="uni2f" unicode="&#x2f;" d="M52-50L421 750L497 750L128-50L52-50Z"  horiz-adv-x="550" vert-adv-y="1000"  />

      
      <glyph glyph-name="uni30" unicode="&#x30;" d="M50 350Q50 509 114.50 608Q179 707 282 707Q386 707 450.50 608Q515 509 515 350Q515 190 450.50 91Q386-8 282-8Q178-8 114 91Q50 190 50 350M170 559.50Q170 559.50 148.50 519.25Q127 479 127 350Q127 221 170 140.50Q213 60 282 60Q351 60 394 140.50Q437 221 437 350Q437 479 394 559.50Q351 640 282 640Q213 640 170 559.50Z"  horiz-adv-x="565" vert-adv-y="1000"  />

      
      <glyph glyph-name="uni31" unicode="&#x31;" d="M32 612L32 672L217 704L217 0L142 0L142 633L32 612Z"  horiz-adv-x="317" vert-adv-y="1000"  />

      
      <glyph glyph-name="uni32" unicode="&#x32;" d="M49 66L352 369Q392 409 392 486Q392 554 354 596.50Q316 639 256 639Q195 639 157.50 596.50Q120 554 120 486L42 486Q42 585 101.50 646Q161 707 256 707Q351 707 410.50 646Q470 585 470 486Q470 381 407 318L154 65L470 65L470 0L49 0L49 66Z"  horiz-adv-x="517" vert-adv-y="1000"  />

      
      <glyph glyph-name="uni33" unicode="&#x33;" d="M219 348L219 412L265 412Q314 412 345.50 444Q377 476 377 526Q377 576 345.50 608Q314 640 265 640Q215 640 183.50 608Q152 576 152 526L75 526Q75 606 127.50 656.50Q180 707 265 707Q350 707 402.50 656.50Q455 606 455 526Q455 424 370 381Q424 360 454.50 313.50Q485 267 485 203Q485 109 424 50.50Q363-8 265-8Q167-8 106 50.50Q45 109 45 203L122 203Q122 139 161.50 99.50Q201 60 265 60Q328 60 367.50 99.50Q407 139 407 203Q407 267 367.50 307.50Q328 348 265 348L219 348Z"  horiz-adv-x="532" vert-adv-y="1000"  />

      
      <glyph glyph-name="uni34" unicode="&#x34;" d="M359 0L359 135L40 135L40 172L354 700L431 700L431 200L494 200L494 135L434 135L434 0L359 0M133 200L361 200L361 586L133 200Z"  horiz-adv-x="548" vert-adv-y="1000"  />

      
      <glyph glyph-name="uni35" unicode="&#x35;" d="M470 214Q470 115 410.50 53.50Q351-8 256-8Q161-8 101.50 50Q42 108 42 201L117 201Q117 139 156 99.50Q195 60 256 60Q316 60 354 103Q392 146 392 214Q392 288 349 334.50Q306 381 238 381Q167 381 123 339L68 360L111 700L418 700L418 635L178 635L149 427Q188 449 242 449Q344 449 407 384Q470 319 470 214Z"  horiz-adv-x="517" vert-adv-y="1000"  />

      
      <glyph glyph-name="uni36" unicode="&#x36;" d="M292 707L357 670Q258 535 188 411Q221 430 266 430Q363 430 424 370Q485 310 485 212Q485 114 424 53Q363-8 264-8Q166-8 105.50 53.50Q45 115 45 218Q45 258 55.50 298Q66 338 77.50 368.50Q89 399 129.50 463.50Q170 528 195 565Q220 602 292 707M161.50 322.50Q161.50 322.50 141.75 301.25Q122 280 122 212Q122 144 161.50 102Q201 60 265 60Q328 60 367.50 102.50Q407 145 407 212Q407 280 367.50 322.50Q328 365 265 365Q201 365 161.50 322.50Z"  horiz-adv-x="530" vert-adv-y="1000"  />

      
      <glyph glyph-name="uni37" unicode="&#x37;" d="M50 635L50 700L474 700L474 672L222 0L142 0L377 635L50 635Z"  horiz-adv-x="524" vert-adv-y="1000"  />

      
      <glyph glyph-name="uni38" unicode="&#x38;" d="M77 526Q77 606 129.50 656.50Q182 707 267 707Q352 707 404.50 656.50Q457 606 457 526Q457 424 372 381Q426 360 456.50 313.50Q487 267 487 203Q487 109 426 50.50Q365-8 267-8Q169-8 108 50.50Q47 109 47 203Q47 267 77.50 313.50Q108 360 161 381Q77 423 77 526M164.50 307Q164.50 307 144.75 287Q125 267 125 203Q125 139 164.50 99.50Q204 60 267 60Q331 60 370.50 99.50Q410 139 410 203Q410 267 370.50 307Q331 347 267 347Q204 347 164.50 307M186.50 608Q186.50 608 170.75 592Q155 576 155 526Q155 476 186 444.50Q217 413 267 413Q317 413 348.50 444.50Q380 476 380 526Q380 576 348.50 608Q317 640 267 640Q218 640 186.50 608Z"  horiz-adv-x="535" vert-adv-y="1000"  />

      
      <glyph glyph-name="uni39" unicode="&#x39;" d="M237-8L173 29Q281 180 342 289Q307 270 264 270Q166 270 105.50 329.50Q45 389 45 488Q45 586 105.50 646.50Q166 707 265 707Q364 707 424.50 646Q485 585 485 482Q485 392 440 307Q395 222 252 14Q242 0 237-8M407 487Q407 555 367.50 597.50Q328 640 265 640Q201 640 161.50 597.50Q122 555 122 487Q122 419 161.50 377Q201 335 265 335Q328 335 367.50 377.50Q407 420 407 487Z"  horiz-adv-x="530" vert-adv-y="1000"  />

      
      <glyph glyph-name="uni3a" unicode="&#x3a;" d="M74.50 6.50Q74.50 6.50 67.25 13.75Q60 21 60 42Q60 63 74.50 77.50Q89 92 110 92Q131 92 145.50 77.50Q160 63 160 42Q160 21 145.50 6.50Q131-8 110-8Q89-8 74.50 6.50M74.50 371.50Q74.50 371.50 67.25 378.75Q60 386 60 407Q60 428 74.50 442.50Q89 457 110 457Q131 457 145.50 442.50Q160 428 160 407Q160 386 145.50 371.50Q131 357 110 357Q89 357 74.50 371.50Z"  horiz-adv-x="220" vert-adv-y="1000"  />

      
      <glyph glyph-name="uni3b" unicode="&#x3b;" d="M74.50 371.50Q74.50 371.50 67.25 378.75Q60 386 60 407Q60 428 74.50 442.50Q89 457 110 457Q131 457 145.50 442.50Q160 428 160 407Q160 386 145.50 371.50Q131 357 110 357Q89 357 74.50 371.50M81-107L55-80Q94-39 102-7Q84-4 72 9.50Q60 23 60 42Q60 63 74.50 77.50Q89 92 110 92Q131 92 145.50 78Q160 64 160 34Q160-28 81-107Z"  horiz-adv-x="220" vert-adv-y="1000"  />

      
      <glyph glyph-name="uni3c" unicode="&#x3c;" d="M316 109L35 300L316 491L360 447L141 300L360 153L316 109Z"  horiz-adv-x="410" vert-adv-y="1000"  />

      
      <glyph glyph-name="uni3d" unicode="&#x3d;" d="M60 325L60 385L415 385L415 325L60 325M60 150L60 210L415 210L415 150L60 150Z"  horiz-adv-x="475" vert-adv-y="1000"  />

      
      <glyph glyph-name="uni3e" unicode="&#x3e;" d="M370 300L89 109L45 153L263 300L45 447L89 491L370 300Z"  horiz-adv-x="410" vert-adv-y="1000"  />

      
      <glyph glyph-name="uni3f" unicode="&#x3f;" d="M86 584L37 633Q116 707 230 707Q323 707 374.50 654.50Q426 602 426 527Q426 486 410 456Q394 426 371 407.50Q348 389 325 370Q302 351 286 321Q270 291 270 250L270 192L195 192L195 250Q195 300 211 337.50Q227 375 249.50 396Q272 417 294.50 435Q317 453 333 475.50Q349 498 349 526Q349 571 318.50 605.50Q288 640 228 640Q189 640 150 624.50Q111 609 86 584M197.50 6.50Q197.50 6.50 190.25 13.75Q183 21 183 42Q183 63 197.50 77.50Q212 92 233 92Q254 92 268.50 77.50Q283 63 283 42Q283 21 268.50 6.50Q254-8 233-8Q212-8 197.50 6.50Z"  horiz-adv-x="471" vert-adv-y="1000"  />

      
      <glyph glyph-name="uni40" unicode="&#x40;" d="M835-73L883-120Q820-187 728-222.50Q636-258 528-258Q314-258 182-124.50Q50 9 50 225Q50 440 182 573.50Q314 707 527 707Q668 707 777 647Q886 587 943 487Q1000 387 1000 264Q1000 191 979 135.50Q958 80 924 50.50Q890 21 852.50 6.50Q815-8 776-8Q688-8 659 44Q601-8 518-8Q421-8 361.50 56.50Q302 121 302 225Q302 329 366.50 393Q431 457 536 457Q661 457 724 383L724 112Q724 87 742.50 73.50Q761 60 790 60Q842 60 882 108Q922 156 922 256Q922 421 814 530.50Q706 640 528 640Q350 640 238.50 525Q127 410 127 225Q127 40 238.50-75Q350-190 530-190Q621-190 701.50-159.50Q782-129 835-73M380 225Q380 152 423.50 106Q467 60 537 60Q606 60 649 101L649 355Q604 390 535 390Q465 390 422.50 344.50Q380 299 380 225Z"  horiz-adv-x="1050" vert-adv-y="1000"  />

      
      <glyph glyph-name="uni41" unicode="&#x41;" d="M611 0L528 200L202 200L120 0L30 0L329 700L402 700L700 0L611 0M366 601L230 270L500 270L366 601Z"  horiz-adv-x="731" vert-adv-y="1000"  />

      
      <glyph glyph-name="uni42" unicode="&#x42;" d="M80 0L80 700L272 700Q356 700 408 650.50Q460 601 460 519Q460 414 379 369Q434 350 466 303.50Q498 257 498 193Q498 105 443 52.50Q388 0 298 0L80 0M420 198Q420 256 385.50 291.50Q351 327 295 327L160 327L160 67L295 67Q351 67 385.50 103Q420 139 420 198M382 513Q382 567 350.50 599.50Q319 632 267 632L160 632L160 395L267 395Q319 395 350.50 427.50Q382 460 382 513Z"  horiz-adv-x="555" vert-adv-y="1000"  />

      
      <glyph glyph-name="uni43" unicode="&#x43;" d="M211.50 557.50Q211.50 557.50 173.25 517.75Q135 478 135 350Q135 222 211.50 142Q288 62 411 62Q537 62 614 142L664 93Q566-8 407-8Q250-8 152.50 91Q55 190 55 350Q55 509 152.50 608Q250 707 407 707Q566 707 664 606L614 556Q536 637 411 637Q288 637 211.50 557.50Z"  horiz-adv-x="709" vert-adv-y="1000"  />

      
      <glyph glyph-name="uni44" unicode="&#x44;" d="M80 0L80 700L295 700Q453 700 550 604Q647 508 647 350Q647 191 550 95.50Q453 0 295 0L80 0M567 350Q567 477 492 554.50Q417 632 295 632L160 632L160 67L295 67Q417 67 492 144.50Q567 222 567 350Z"  horiz-adv-x="702" vert-adv-y="1000"  />

      
      <glyph glyph-name="uni45" unicode="&#x45;" d="M157 635L157 385L417 385L417 320L157 320L157 65L455 65L455 0L80 0L80 700L450 700L450 635L157 635Z"  horiz-adv-x="507" vert-adv-y="1000"  />

      
      <glyph glyph-name="uni46" unicode="&#x46;" d="M157 635L157 385L400 385L400 320L157 320L157 0L80 0L80 700L435 700L435 635L157 635Z"  horiz-adv-x="481" vert-adv-y="1000"  />

      
      <glyph glyph-name="uni47" unicode="&#x47;" d="M407 305L407 370L664 370L664 93Q566-8 407-8Q250-8 152.50 91Q55 190 55 350Q55 509 152.50 608Q250 707 407 707Q566 707 664 606L614 556Q536 637 411 637Q288 637 211.50 557.50Q135 478 135 350Q135 222 211.50 142Q288 62 411 62Q516 62 586 121L586 305L407 305Z"  horiz-adv-x="744" vert-adv-y="1000"  />

      
      <glyph glyph-name="uni48" unicode="&#x48;" d="M157 700L157 385L542 385L542 700L620 700L620 0L542 0L542 320L157 320L157 0L80 0L80 700L157 700Z"  horiz-adv-x="700" vert-adv-y="1000"  />

      
      <glyph glyph-name="uni49" unicode="&#x49;" d="M77 0L77 700L155 700L155 0L77 0Z"  horiz-adv-x="232" vert-adv-y="1000"  />

      
      <glyph glyph-name="uni4a" unicode="&#x4a;" d="M307 190L307 700L385 700L385 190Q385 102 330 47Q275-8 188-8Q99-8 45 48L95 98Q129 62 185 62Q239 62 273 97.50Q307 133 307 190Z"  horiz-adv-x="462" vert-adv-y="1000"  />

      
      <glyph glyph-name="uni4b" unicode="&#x4b;" d="M77 0L77 700L155 700L155 0L77 0M472 0L164 359L452 700L549 700L262 359L572 0L472 0Z"  horiz-adv-x="607" vert-adv-y="1000"  />

      
      <glyph glyph-name="uni4c" unicode="&#x4c;" d="M157 700L157 65L430 65L430 0L80 0L80 700L157 700Z"  horiz-adv-x="475" vert-adv-y="1000"  />

      
      <glyph glyph-name="uni4d" unicode="&#x4d;" d="M660 0L660 540L426 160L392 160L157 540L157 0L80 0L80 700L139 700L409 269L679 700L738 700L738 0L660 0Z"  horiz-adv-x="818" vert-adv-y="1000"  />

      
      <glyph glyph-name="uni4e" unicode="&#x4e;" d="M80 700L132 700L565 147L565 700L642 700L642 0L590 0L157 553L157 0L80 0L80 700Z"  horiz-adv-x="722" vert-adv-y="1000"  />

      
      <glyph glyph-name="uni4f" unicode="&#x4f;" d="M54 350Q54 509 150.50 608Q247 707 403 707Q559 707 655.50 608Q752 509 752 350Q752 190 655.50 91Q559-8 403-8Q247-8 150.50 91Q54 190 54 350M134 350Q134 222 209 142Q284 62 403 62Q523 62 597.50 142Q672 222 672 350Q672 478 597.50 557.50Q523 637 403 637Q284 637 209 557Q134 477 134 350Z"  horiz-adv-x="806" vert-adv-y="1000"  />

      
      <glyph glyph-name="uni50" unicode="&#x50;" d="M80 0L80 700L270 700Q362 700 418 646.50Q474 593 474 503Q474 414 418 360.50Q362 307 270 307L160 307L160 0L80 0M360 410Q360 410 377 427.50Q394 445 394 503Q394 561 360 596.50Q326 632 270 632L160 632L160 375L270 375Q326 375 360 410Z"  horiz-adv-x="529" vert-adv-y="1000"  />

      
      <glyph glyph-name="uni51" unicode="&#x51;" d="M715-26L625 65Q533-8 403-8Q247-8 150.50 91Q54 190 54 350Q54 509 150.50 608Q247 707 403 707Q559 707 655.50 608Q752 509 752 350Q752 209 674 115L764 24L715-26M208.50 557.50Q208.50 557.50 171.25 517.75Q134 478 134 350Q134 222 208.50 142Q283 62 403 62Q509 62 573 117L461 231L510 280L616 172Q671 242 671 350Q671 478 597 557.50Q523 637 403 637Q283 637 208.50 557.50Z"  horiz-adv-x="807" vert-adv-y="1000"  />

      
      <glyph glyph-name="uni52" unicode="&#x52;" d="M421 0L255 307L160 307L160 0L80 0L80 700L277 700Q369 700 425.50 646.50Q482 593 482 503Q482 429 442 378.50Q402 328 334 313L510 0L421 0M367.50 410Q367.50 410 384.75 427.50Q402 445 402 503Q402 561 367.50 596.50Q333 632 277 632L160 632L160 375L277 375Q333 375 367.50 410Z"  horiz-adv-x="544" vert-adv-y="1000"  />

      
      <glyph glyph-name="uni53" unicode="&#x53;" d="M461 624L412 575Q387 602 346 619.50Q305 637 264 637Q203 637 172.50 601Q142 565 142 520Q142 487 160.50 462.50Q179 438 209 422.50Q239 407 275 393Q311 379 347.50 363Q384 347 414 326.50Q444 306 462.50 272Q481 238 481 193Q481 110 424.50 51Q368-8 265-8Q133-8 46 85L94 134Q124 100 168.50 81Q213 62 258 62Q328 62 364.50 102.50Q401 143 401 191Q401 227 376 253.50Q351 280 313 294.50Q275 309 231.50 327.50Q188 346 150 366Q112 386 87 425Q62 464 62 518Q62 597 112 652Q162 707 257 707Q381 707 461 624Z"  horiz-adv-x="541" vert-adv-y="1000"  />

      
      <glyph glyph-name="uni54" unicode="&#x54;" d="M322 635L322 0L245 0L245 635L45 635L45 700L522 700L522 635L322 635Z"  horiz-adv-x="567" vert-adv-y="1000"  />

      
      <glyph glyph-name="uni55" unicode="&#x55;" d="M524 255L524 700L602 700L602 255Q602 137 529.50 64.50Q457-8 340-8Q223-8 151.50 64.50Q80 137 80 255L80 700L157 700L157 255Q157 169 208 115.50Q259 62 340 62Q422 62 473 115.50Q524 169 524 255Z"  horiz-adv-x="682" vert-adv-y="1000"  />

      
      <glyph glyph-name="uni56" unicode="&#x56;" d="M700 700L402 0L329 0L30 700L122 700L366 101L609 700L700 700Z"  horiz-adv-x="731" vert-adv-y="1000"  />

      
      <glyph glyph-name="uni57" unicode="&#x57;" d="M1064 700L813 0L734 0L546 567L360 0L281 0L30 700L120 700L320 119L506 700L587 700L774 119L974 700L1064 700Z"  horiz-adv-x="1094" vert-adv-y="1000"  />

      
      <glyph glyph-name="uni58" unicode="&#x58;" d="M572 0L351 301L132 0L33 0L295 354L40 700L140 700L351 408L564 700L664 700L408 354L671 0L572 0Z"  horiz-adv-x="704" vert-adv-y="1000"  />

      
      <glyph glyph-name="uni59" unicode="&#x59;" d="M299 0L299 301L32 700L122 700L338 378L554 700L644 700L377 300L377 0L299 0Z"  horiz-adv-x="677" vert-adv-y="1000"  />

      
      <glyph glyph-name="uni5a" unicode="&#x5a;" d="M61 635L61 700L578 700L578 672L167 65L580 65L580 0L55 0L55 28L465 635L61 635Z"  horiz-adv-x="635" vert-adv-y="1000"  />

      
      <glyph glyph-name="uni5b" unicode="&#x5b;" d="M247 750L247 690L147 690L147-190L247-190L247-250L72-250L72 750L247 750Z"  horiz-adv-x="297" vert-adv-y="1000"  />

      
      <glyph glyph-name="uni5c" unicode="&#x5c;" d="M128 750L497-50L421-50L52 750L128 750Z"  horiz-adv-x="550" vert-adv-y="1000"  />

      
      <glyph glyph-name="uni5d" unicode="&#x5d;" d="M50 690L50 750L225 750L225-250L50-250L50-190L150-190L150 690L50 690Z"  horiz-adv-x="297" vert-adv-y="1000"  />

      
      <glyph glyph-name="uni5e" unicode="&#x5e;" d="M226 676L417 485L378 446L226 598L74 446L35 485L226 676Z"  horiz-adv-x="452" vert-adv-y="1000"  />

      
      <glyph glyph-name="uni5f" unicode="&#x5f;" d="M0-160L0-100L450-100L450-160L0-160Z"  horiz-adv-x="450" vert-adv-y="1000"  />

      
      <glyph glyph-name="uni60" unicode="&#x60;" d="M89 676L215 550L176 511L50 637L89 676Z"  horiz-adv-x="265" vert-adv-y="1000"  />

      
      <glyph glyph-name="uni61" unicode="&#x61;" d="M418 49L418-1Q406-6 386-6Q322-6 303 45Q248-8 174-8Q111-8 77 29.50Q43 67 43 122Q43 190 93.50 226Q144 262 228 262Q247 262 264 260Q281 258 288 256L296 255L296 315Q296 348 273 371.50Q250 395 202 395Q135 395 99 359L60 398Q119 457 208 457Q287 457 329 416.50Q371 376 371 315L371 88Q371 49 418 49M196 55Q255 55 296 97L296 202Q273 209 234 209Q118 209 118 130Q118 99 137 77Q156 55 196 55Z"  horiz-adv-x="453" vert-adv-y="1000"  />

      
      <glyph glyph-name="uni62" unicode="&#x62;" d="M251-8Q135-8 72 55L72 750L147 750L147 420Q199 457 272 457Q371 457 432.50 392.50Q494 328 494 224Q494 118 430 55Q366-8 251-8M417 223Q417 298 374 344Q331 390 261 390Q189 390 147 342L147 92Q189 60 257 60Q332 60 374.50 105Q417 150 417 223Z"  horiz-adv-x="539" vert-adv-y="1000"  />

      
      <glyph glyph-name="uni63" unicode="&#x63;" d="M165.50 344Q165.50 344 143.75 321Q122 298 122 225Q122 152 165.50 106Q209 60 279 60Q352 60 395 106L442 59Q377-8 275-8Q172-8 108.50 56.50Q45 121 45 225Q45 329 108.50 393Q172 457 275 457Q377 457 442 389L395 343Q351 390 279 390Q209 390 165.50 344Z"  horiz-adv-x="477" vert-adv-y="1000"  />

      
      <glyph glyph-name="uni64" unicode="&#x64;" d="M468 0L393 0L393 36Q336-8 261-8Q164-8 104.50 56.50Q45 121 45 225Q45 329 108 393Q171 457 273 457Q339 457 393 425L393 750L468 750L468 0M165.50 344Q165.50 344 143.75 321Q122 298 122 225Q122 152 165.50 106Q209 60 279 60Q350 60 393 103L393 347Q350 390 279 390Q209 390 165.50 344Z"  horiz-adv-x="541" vert-adv-y="1000"  />

      
      <glyph glyph-name="uni65" unicode="&#x65;" d="M465 204L124 204Q129 138 171.50 99Q214 60 282 60Q357 60 401 106L446 59Q381-8 277-8Q173-8 109 56.50Q45 121 45 227Q45 330 104.50 393.50Q164 457 262 457Q361 457 413 389.50Q465 322 465 204M262 391Q206 391 168.50 355.50Q131 320 124 259L390 259Q383 321 350 356Q317 391 262 391Z"  horiz-adv-x="508" vert-adv-y="1000"  />

      
      <glyph glyph-name="uni66" unicode="&#x66;" d="M32 390L32 450L95 450L95 605Q95 674 137 715.50Q179 757 248 757Q279 757 302 747L302 683Q284 693 261 693Q222 693 197 668.50Q172 644 172 605L172 450L302 450L302 390L172 390L172 0L95 0L95 390L32 390Z"  horiz-adv-x="322" vert-adv-y="1000"  />

      
      <glyph glyph-name="uni67" unicode="&#x67;" d="M22-118Q22-75 49.50-43Q77-11 125 5Q67 30 67 80Q67 132 130 156Q52 196 52 293Q52 367 101.50 412Q151 457 230 457Q301 457 350 419Q385 457 434 457Q442 457 460 455L460 395Q448 397 440 397Q410 397 385 379Q407 341 407 295Q407 222 357.50 177Q308 132 228 132Q186 132 163 118Q140 104 140 82Q140 60 168.50 46Q197 32 245 32Q341 32 399-6Q457-44 457-106Q457-173 392-215.50Q327-258 227-258Q134-258 78-219Q22-180 22-118M100-118Q100-155 134-177Q168-199 227-199Q292-199 336-173Q380-147 380-107Q380-71 342.50-49Q305-27 245-27Q179-27 139.50-52Q100-77 100-118M127 295Q127 249 156 220.50Q185 192 231 192Q277 192 305.50 220.50Q334 249 334 295Q334 340 305.50 368.50Q277 397 231 397Q185 397 156 368.50Q127 340 127 295Z"  horiz-adv-x="495" vert-adv-y="1000"  />

      
      <glyph glyph-name="uni68" unicode="&#x68;" d="M72 750L147 750L147 412Q201 457 279 457Q355 457 401.50 406Q448 355 448 272L448 0L373 0L373 272Q373 325 342 357.50Q311 390 261 390Q190 390 147 345L147 0L72 0L72 750Z"  horiz-adv-x="523" vert-adv-y="1000"  />

      
      <glyph glyph-name="uni69" unicode="&#x69;" d="M72 0L72 450L147 450L147 0L72 0M74.50 549.50Q74.50 549.50 67.25 556.75Q60 564 60 585Q60 606 74.50 620.50Q89 635 110 635Q131 635 145.50 620.50Q160 606 160 585Q160 564 145.50 549.50Q131 535 110 535Q89 535 74.50 549.50Z"  horiz-adv-x="220" vert-adv-y="1000"  />

      
      <glyph glyph-name="uni6a" unicode="&#x6a;" d="M74.50 549.50Q74.50 549.50 67.25 556.75Q60 564 60 585Q60 606 74.50 620.50Q89 635 110 635Q131 635 145.50 620.50Q160 606 160 585Q160 564 145.50 549.50Q131 535 110 535Q89 535 74.50 549.50M7-250L7-200Q72-200 72-137L72 450L147 450L147-139Q147-193 118.50-224Q90-255 42-255Q19-255 7-250Z"  horiz-adv-x="220" vert-adv-y="1000"  />

      
      <glyph glyph-name="uni6b" unicode="&#x6b;" d="M147 0L72 0L72 750L147 750L147 247L325 450L415 450L227 239L436 0L347 0L147 231L147 0Z"  horiz-adv-x="459" vert-adv-y="1000"  />

      
      <glyph glyph-name="uni6c" unicode="&#x6c;" d="M215 50L215 0Q203-5 178-5Q129-5 100.50 26Q72 57 72 111L72 750L147 750L147 113Q147 50 215 50Z"  horiz-adv-x="247" vert-adv-y="1000"  />

      
      <glyph glyph-name="uni6d" unicode="&#x6d;" d="M613 0L613 302Q613 341 590.50 365.50Q568 390 532 390Q459 390 413 346Q418 323 418 302L418 0L343 0L343 302Q343 341 320.50 365.50Q298 390 261 390Q190 390 147 345L147 0L72 0L72 450L147 450L147 412Q201 457 279 457Q356 457 394 395Q453 457 549 457Q612 457 650 414.50Q688 372 688 302L688 0L613 0Z"  horiz-adv-x="761" vert-adv-y="1000"  />

      
      <glyph glyph-name="uni6e" unicode="&#x6e;" d="M72 450L147 450L147 412Q201 457 279 457Q355 457 401.50 406Q448 355 448 272L448 0L373 0L373 272Q373 325 342 357.50Q311 390 261 390Q190 390 147 345L147 0L72 0L72 450Z"  horiz-adv-x="520" vert-adv-y="1000"  />

      
      <glyph glyph-name="uni6f" unicode="&#x6f;" d="M107.50 56.50Q107.50 56.50 75.75 88.75Q44 121 44 225Q44 329 107.50 393Q171 457 274 457Q377 457 441 392.50Q505 328 505 225Q505 121 441 56.50Q377-8 274-8Q171-8 107.50 56.50M163.50 344.50Q163.50 344.50 142.25 321.75Q121 299 121 225Q121 151 163.50 105.50Q206 60 274 60Q342 60 384.50 106Q427 152 427 225Q427 298 384.50 344Q342 390 274 390Q206 390 163.50 344.50Z"  horiz-adv-x="549" vert-adv-y="1000"  />

      
      <glyph glyph-name="uni70" unicode="&#x70;" d="M72 450L147 450L147 412Q201 457 280 457Q377 457 436.50 393Q496 329 496 225Q496 121 433 56.50Q370-8 268-8Q199-8 147 24L147-250L72-250L72 450M374.50 106Q374.50 106 396.25 129Q418 152 418 225Q418 298 374.50 344Q331 390 261 390Q190 390 147 345L147 102Q189 60 261 60Q331 60 374.50 106Z"  horiz-adv-x="541" vert-adv-y="1000"  />

      
      <glyph glyph-name="uni71" unicode="&#x71;" d="M284 457Q340 457 389.50 440Q439 423 467 393L467-250L392-250L392 29Q340-8 267-8Q168-8 106.50 56.50Q45 121 45 225Q45 330 109 393.50Q173 457 284 457M165 344.50Q165 344.50 143.50 321.75Q122 299 122 225Q122 151 165 105.50Q208 60 278 60Q349 60 392 106L392 357Q352 390 282 390Q208 390 165 344.50Z"  horiz-adv-x="539" vert-adv-y="1000"  />

      
      <glyph glyph-name="uni72" unicode="&#x72;" d="M269 456Q280 456 300 454L300 388Q284 391 265 391Q191 391 147 329L147 0L72 0L72 450L147 450L147 395Q200 456 269 456Z"  horiz-adv-x="335" vert-adv-y="1000"  />

      
      <glyph glyph-name="uni73" unicode="&#x73;" d="M325 403L281 359Q267 374 241.50 384Q216 394 193 394Q160 394 143 374.50Q126 355 126 331Q126 312 140.50 297Q155 282 169 275.50Q183 269 219 254Q247 242 263.50 233.50Q280 225 299.50 210Q319 195 328 174.50Q337 154 337 128Q337 73 297.50 32.50Q258-8 187-8Q95-8 39 53L83 97Q119 55 182 55Q222 55 242 76.50Q262 98 262 125Q262 150 242.50 164Q223 178 173 199Q144 210 126.50 219.50Q109 229 89.50 244Q70 259 60.50 280Q51 301 51 329Q51 382 86 419.50Q121 457 187 457Q273 457 325 403Z"  horiz-adv-x="382" vert-adv-y="1000"  />

      
      <glyph glyph-name="uni74" unicode="&#x74;" d="M27 390L27 450L85 450L85 550L162 550L162 450L282 450L282 390L162 390L162 140Q162 103 184 80Q206 57 242 57Q266 57 282 67L282 2Q259-8 229-8Q163-8 124 32.50Q85 73 85 140L85 390L27 390Z"  horiz-adv-x="317" vert-adv-y="1000"  />

      
      <glyph glyph-name="uni75" unicode="&#x75;" d="M458 450L458 185Q458 99 404.50 45.50Q351-8 265-8Q179-8 125.50 45.50Q72 99 72 185L72 450L150 450L150 185Q150 129 182.50 94.50Q215 60 267 60Q319 60 351.50 95Q384 130 384 185L384 450L458 450Z"  horiz-adv-x="530" vert-adv-y="1000"  />

      
      <glyph glyph-name="uni76" unicode="&#x76;" d="M477 450L281 0L211 0L15 450L99 450L246 93L394 450L477 450Z"  horiz-adv-x="493" vert-adv-y="1000"  />

      
      <glyph glyph-name="uni77" unicode="&#x77;" d="M729 450L562 0L484 0L372 345L261 0L182 0L15 450L101 450L221 91L334 450L410 450L523 91L643 450L729 450Z"  horiz-adv-x="745" vert-adv-y="1000"  />

      
      <glyph glyph-name="uni78" unicode="&#x78;" d="M372 0L239 181L107 0L20 0L190 229L27 450L115 450L239 278L364 450L451 450L288 229L459 0L372 0Z"  horiz-adv-x="479" vert-adv-y="1000"  />

      
      <glyph glyph-name="uni79" unicode="&#x79;" d="M477 450L169-250L86-250L211 0L15 450L99 450L246 90L394 450L477 450Z"  horiz-adv-x="493" vert-adv-y="1000"  />

      
      <glyph glyph-name="uni7a" unicode="&#x7a;" d="M51 390L51 450L418 450L418 422L156 60L418 60L418 0L47 0L47 28L309 390L51 390Z"  horiz-adv-x="465" vert-adv-y="1000"  />

      
      <glyph glyph-name="uni7b" unicode="&#x7b;" d="M277-200L277-258Q210-258 165-196Q120-134 120-38L120 57Q120 128 96.50 174Q73 220 40 220L40 277Q73 277 96.50 323Q120 369 120 440L120 537Q120 633 165 695Q210 757 277 757L277 700Q244 700 220.50 654Q197 608 197 537L197 440Q197 373 174 322.50Q151 272 113 248Q151 225 174 175Q197 125 197 57L197-38Q197-108 220.50-154Q244-200 277-200Z"  horiz-adv-x="317" vert-adv-y="1000"  />

      
      <glyph glyph-name="uni7c" unicode="&#x7c;" d="M72-250L72 750L147 750L147-250L72-250Z"  horiz-adv-x="220" vert-adv-y="1000"  />

      
      <glyph glyph-name="uni7d" unicode="&#x7d;" d="M40-258L40-200Q73-200 96.50-154Q120-108 120-38L120 57Q120 125 143 175Q166 225 204 248Q166 272 143 322.50Q120 373 120 440L120 537Q120 608 96.50 654Q73 700 40 700L40 757Q107 757 152 695Q197 633 197 537L197 440Q197 369 220.50 323Q244 277 277 277L277 220Q244 220 220.50 174Q197 128 197 57L197-38Q197-134 152-196Q107-258 40-258Z"  horiz-adv-x="317" vert-adv-y="1000"  />

      
      <glyph glyph-name="uni7e" unicode="&#x7e;" d="M86 248L35 248Q35 296 65.50 326Q96 356 142 356Q183 356 222 324.50Q261 293 289 293Q314 293 330 309.50Q346 326 346 352L397 352Q397 304 367 274Q337 244 289 244Q247 244 209 276Q171 308 143 308Q118 308 102 291.50Q86 275 86 248Z"  horiz-adv-x="432" vert-adv-y="1000"  />

      
      <glyph glyph-name="unia1" unicode="&#xa1;" d="M74.50 371.50Q74.50 371.50 67.25 378.75Q60 386 60 407Q60 428 74.50 442.50Q89 457 110 457Q131 457 145.50 442.50Q160 428 160 407Q160 386 145.50 371.50Q131 357 110 357Q89 357 74.50 371.50M72 257L147 257L147-250L72-250L72 257Z"  horiz-adv-x="220" vert-adv-y="1000"  />

      
      <glyph glyph-name="unia2" unicode="&#xa2;" d="M242-100L242-6Q152 5 98.50 67Q45 129 45 225Q45 319 99 381.50Q153 444 242 455L242 550L287 550L287 457Q380 453 442 389L395 343Q353 387 287 390L287 60Q354 61 395 106L442 59Q381-4 287-8L287-100L242-100M154.50 331Q154.50 331 138.25 309.50Q122 288 122 225Q122 162 154.50 118.50Q187 75 242 64L242 386Q187 374 154.50 331Z"  horiz-adv-x="477" vert-adv-y="1000"  />

      
      <glyph glyph-name="unia3" unicode="&#xa3;" d="M45 320L45 380L120 380L120 517Q120 603 174.50 655Q229 707 316 707Q405 707 460 652L410 601Q377 637 319 637Q265 637 231.50 604.50Q198 572 198 517L198 380L375 380L375 320L198 320L198 118Q222 111 272 83.50Q322 56 350 56Q377 56 393 72.50Q409 89 409 115L470 115Q470 60 437 26Q404-8 352-8Q308-8 249 25.50Q190 59 162 59Q135 59 119 43Q103 27 103 0L42 0Q42 43 63 74.50Q84 106 120 117L120 320L45 320Z"  horiz-adv-x="522" vert-adv-y="1000"  />

      
      <glyph glyph-name="unia4" unicode="&#xa4;" d="M123 200Q95 242 95 300Q95 358 123 398L40 482L82 525L167 440Q208 470 265 470Q322 470 363 440L448 525L490 482L406 398Q435 358 435 300Q435 241 406 200L490 117L447 75L363 159Q323 130 265 130Q207 130 167 159L83 75L40 117L123 200M163 300Q163 250 191.50 218.50Q220 187 265 187Q311 187 339.50 218.50Q368 250 368 300Q368 350 339.50 381Q311 412 265 412Q220 412 191.50 380.50Q163 349 163 300Z"  horiz-adv-x="530" vert-adv-y="1000"  />

      
      <glyph glyph-name="unia5" unicode="&#xa5;" d="M159 220L159 265L299 265L299 301L32 700L122 700L338 378L554 700L644 700L377 300L377 265L517 265L517 220L377 220L377 137L517 137L517 92L377 92L377 0L299 0L299 92L159 92L159 137L299 137L299 220L159 220Z"  horiz-adv-x="677" vert-adv-y="1000"  />

      
      <glyph glyph-name="unia6" unicode="&#xa6;" d="M72-250L72 200L147 200L147-250L72-250M147 750L147 300L72 300L72 750L147 750Z"  horiz-adv-x="220" vert-adv-y="1000"  />

      
      <glyph glyph-name="unia7" unicode="&#xa7;" d="M162 439L366 235L316 185L110 391Q45 456 45 537Q45 613 96 660Q147 707 229 707Q325 707 383 640L335 592Q296 639 229 639Q182 639 152 610.50Q122 582 122 537Q122 477 162 439M261 10L57 215L107 265L313 59Q378-6 378-88Q378-164 327-211Q276-258 194-258Q99-258 40-191L88-142Q128-190 194-190Q241-190 271-161Q301-132 301-87Q301-30 261 10Z"  horiz-adv-x="423" vert-adv-y="1000"  />

      
      <glyph glyph-name="unia8" unicode="&#xa8;" d="M84 538.50Q84 538.50 77 545.25Q70 552 70 572Q70 592 83.50 606Q97 620 117 620Q137 620 151 606Q165 592 165 572Q165 552 151 538.50Q137 525 117 525Q98 525 84 538.50M271 538.50Q271 538.50 264 545.25Q257 552 257 572Q257 592 271 606Q285 620 305 620Q325 620 339 606Q353 592 353 572Q353 552 339 538.50Q325 525 305 525Q285 525 271 538.50Z"  horiz-adv-x="428" vert-adv-y="1000"  />

      
      <glyph glyph-name="unia9" unicode="&#xa9;" d="M50 350Q50 509 147.50 608Q245 707 402 707Q559 707 657 608Q755 509 755 350Q755 190 657.50 91Q560-8 402-8Q245-8 147.50 91Q50 190 50 350M108 350Q108 211 189.50 124.50Q271 38 402 38Q533 38 615 124.50Q697 211 697 350Q697 488 615 574.50Q533 661 402 661Q272 661 190 574.50Q108 488 108 350M316.50 449Q316.50 449 298.25 430Q280 411 280 350Q280 289 317 250.50Q354 212 412 212Q472 212 508 250L538 221Q490 171 410 171Q330 171 281 220.50Q232 270 232 350Q232 430 281.50 479.50Q331 529 410 529Q489 529 538 478L508 449Q472 487 412 487Q353 487 316.50 449Z"  horiz-adv-x="805" vert-adv-y="1000"  />

      
      <glyph glyph-name="uniaa" unicode="&#xaa;" d="M232 483L232 452Q226 449 214 449Q182 449 169 475Q141 447 100 447Q65 447 46.50 467.50Q28 488 28 516Q28 554 61.50 576Q95 598 147 598Q157 598 165 596L165 622Q165 638 153 651.50Q141 665 118 665Q86 665 66 645L40 670Q74 704 122 704Q164 704 188 680Q212 656 212 622L212 503Q212 483 232 483M115 487Q147 487 165 509L165 564Q161 565 149 565Q117 565 96.50 553Q76 541 76 521Q76 508 85.50 497.50Q95 487 115 487Z"  horiz-adv-x="260" vert-adv-y="1000"  />

      
      <glyph glyph-name="uniab" unicode="&#xab;" d="M206 79L35 250L206 421L245 382L113 250L245 118L206 79M376 79L205 250L376 421L415 382L283 250L415 118L376 79Z"  horiz-adv-x="470" vert-adv-y="1000"  />

      
      <glyph glyph-name="uniac" unicode="&#xac;" d="M60 270L60 330L440 330L440 155L380 155L380 270L60 270Z"  horiz-adv-x="500" vert-adv-y="1000"  />

      
      <glyph glyph-name="uniad" unicode="&#xad;" d="M60 235L60 295L280 295L280 235L60 235Z"  horiz-adv-x="340" vert-adv-y="1000"  />

      
      <glyph glyph-name="uniae" unicode="&#xae;" d="M50 350Q50 509 147.50 608Q245 707 402 707Q559 707 657 608Q755 509 755 350Q755 190 657.50 91Q560-8 402-8Q245-8 147.50 91Q50 190 50 350M108 350Q108 211 189.50 124.50Q271 38 402 38Q533 38 615 124.50Q697 211 697 350Q697 488 615 574.50Q533 661 402 661Q272 661 190 574.50Q108 488 108 350M472 174L392 324L350 324L350 174L302 174L302 524L404 524Q452 524 481 496.50Q510 469 510 424Q510 388 491 362.50Q472 337 439 328L525 174L472 174M462 424Q462 450 446 466.50Q430 483 404 483L350 483L350 364L404 364Q430 364 446 380.50Q462 397 462 424Z"  horiz-adv-x="805" vert-adv-y="1000"  />

      
      <glyph glyph-name="uniaf" unicode="&#xaf;" d="M65 542L65 590L310 590L310 542L65 542Z"  horiz-adv-x="375" vert-adv-y="1000"  />

      
      <glyph glyph-name="unib0" unicode="&#xb0;" d="M73 528Q73 528 59 542Q45 556 45 602Q45 648 73 676.50Q101 705 145 705Q191 705 218.50 677Q246 649 246 602Q246 556 218.50 528Q191 500 145 500Q101 500 73 528M102.50 646.50Q102.50 646.50 94.25 638.25Q86 630 86 602Q86 574 102.50 557.50Q119 541 145 541Q172 541 188.50 557.50Q205 574 205 602Q205 630 188.50 646.50Q172 663 145 663Q119 663 102.50 646.50Z"  horiz-adv-x="290" vert-adv-y="1000"  />

      
      <glyph glyph-name="unib1" unicode="&#xb1;" d="M60 272L60 332L187 332L187 460L247 460L247 332L375 332L375 272L247 272L247 145L187 145L187 272L60 272M60 52L60 112L375 112L375 52L60 52Z"  horiz-adv-x="435" vert-adv-y="1000"  />

      
      <glyph glyph-name="unib2" unicode="&#xb2;" d="M32 388L182 538Q201 557 201 592Q201 623 183.50 643Q166 663 139 663Q111 663 93.50 643.50Q76 624 76 592L29 592Q29 642 59.50 673Q90 704 139 704Q187 704 217 673Q247 642 247 592Q247 543 214 508L94 388L247 388L247 350L32 350L32 388Z"  horiz-adv-x="279" vert-adv-y="1000"  />

      
      <glyph glyph-name="unib3" unicode="&#xb3;" d="M120 520L120 558L143 558Q166 558 180.50 573Q195 588 195 611Q195 634 180.50 648.50Q166 663 143 663Q120 663 106 648.50Q92 634 92 611L45 611Q45 652 72.50 678Q100 704 143 704Q187 704 214.50 678Q242 652 242 611Q242 562 202 540Q255 516 255 453Q255 405 224 375.50Q193 346 143 346Q93 346 62 375.50Q31 405 31 453L78 453Q78 423 96 404.50Q114 386 143 386Q172 386 190.50 404.50Q209 423 209 453Q209 482 190.50 501Q172 520 143 520L120 520Z"  horiz-adv-x="287" vert-adv-y="1000"  />

      
      <glyph glyph-name="unib4" unicode="&#xb4;" d="M50 550L176 676L215 637L89 511L50 550Z"  horiz-adv-x="265" vert-adv-y="1000"  />

      
      <glyph glyph-name="unib5" unicode="&#xb5;" d="M17-200L17-150Q72-150 72-97L72 450L150 450L150 185Q150 129 182.50 94.50Q215 60 267 60Q319 60 351.50 95Q384 130 384 185L384 450L458 450L458 185Q458 99 404.50 45.50Q351-8 265-8Q194-8 147 27L147-99Q147-148 121-176.50Q95-205 51-205Q29-205 17-200Z"  horiz-adv-x="530" vert-adv-y="1000"  />

      
      <glyph glyph-name="unib6" unicode="&#xb6;" d="M354 700L354 0L282 0L282 317L252 317Q162 317 107 369Q52 421 52 508Q52 595 107 647.50Q162 700 252 700L354 700M432 0L432 700L504 700L504 0L432 0Z"  horiz-adv-x="577" vert-adv-y="1000"  />

      
      <glyph glyph-name="unib7" unicode="&#xb7;" d="M74.50 214.50Q74.50 214.50 67.25 221.75Q60 229 60 250Q60 271 74.50 285.50Q89 300 110 300Q131 300 145.50 285.50Q160 271 160 250Q160 229 145.50 214.50Q131 200 110 200Q89 200 74.50 214.50Z"  horiz-adv-x="220" vert-adv-y="1000"  />

      
      <glyph glyph-name="unib8" unicode="&#xb8;" d="M140 0L140-59Q206-71 206-136Q206-171 183-193Q160-215 123-215Q86-215 62-191L88-165Q102-179 123-179Q144-179 157-167Q170-155 170-134Q170-88 105-88L105 0L140 0Z"  horiz-adv-x="264" vert-adv-y="1000"  />

      
      <glyph glyph-name="unib9" unicode="&#xb9;" d="M26 650L26 686L126 702L126 350L81 350L81 660L26 650Z"  horiz-adv-x="183" vert-adv-y="1000"  />

      
      <glyph glyph-name="uniba" unicode="&#xba;" d="M29 576Q29 633 64.50 668.50Q100 704 157 704Q215 704 250.50 668.50Q286 633 286 576Q286 518 250.50 482.50Q215 447 157 447Q100 447 64.50 482.50Q29 518 29 576M78 576Q78 537 100 513.50Q122 490 157 490Q193 490 215 513.50Q237 537 237 576Q237 614 215 637.50Q193 661 157 661Q122 661 100 637.50Q78 614 78 576Z"  horiz-adv-x="315" vert-adv-y="1000"  />

      
      <glyph glyph-name="unibb" unicode="&#xbb;" d="M430 250L259 79L220 118L352 250L220 382L259 421L430 250M260 250L89 79L50 118L182 250L50 382L89 421L260 250Z"  horiz-adv-x="470" vert-adv-y="1000"  />

      
      <glyph glyph-name="unibc" unicode="&#xbc;" d="M26 650L26 686L126 702L126 350L81 350L81 660L26 650M97 0L466 700L522 700L154 0L97 0M524 0L524 65L366 65L366 86L522 350L567 350L567 104L598 104L598 65L569 65L569 0L524 0M422 104L526 104L526 282L422 104Z"  horiz-adv-x="634" vert-adv-y="1000"  />

      
      <glyph glyph-name="unibd" unicode="&#xbd;" d="M26 650L26 686L126 702L126 350L81 350L81 660L26 650M97 0L466 700L522 700L154 0L97 0M439 38L589 188Q608 207 608 242Q608 273 590.50 293Q573 313 546 313Q518 313 500.50 293.50Q483 274 483 242L436 242Q436 292 466.50 323Q497 354 546 354Q594 354 624 323Q654 292 654 242Q654 193 621 158L501 38L654 38L654 0L439 0L439 38Z"  horiz-adv-x="686" vert-adv-y="1000"  />

      
      <glyph glyph-name="unibe" unicode="&#xbe;" d="M120 520L120 558L143 558Q166 558 180.50 573Q195 588 195 611Q195 634 180.50 648.50Q166 663 143 663Q120 663 106 648.50Q92 634 92 611L45 611Q45 652 72.50 678Q100 704 143 704Q187 704 214.50 678Q242 652 242 611Q242 562 202 540Q255 516 255 453Q255 405 224 375.50Q193 346 143 346Q93 346 62 375.50Q31 405 31 453L78 453Q78 423 96 404.50Q114 386 143 386Q172 386 190.50 404.50Q209 423 209 453Q209 482 190.50 501Q172 520 143 520L120 520M140 0L508 700L565 700L196 0L140 0M542 0L542 65L384 65L384 86L540 350L585 350L585 104L616 104L616 65L587 65L587 0L542 0M440 104L544 104L544 282L440 104Z"  horiz-adv-x="652" vert-adv-y="1000"  />

      
      <glyph glyph-name="unibf" unicode="&#xbf;" d="M385-135L434-184Q354-258 241-258Q148-258 96.50-205.50Q45-153 45-77Q45-36 61-6Q77 24 100 42.50Q123 61 146 80Q169 99 185 129Q201 159 201 200L201 257L276 257L276 200Q276 149 260 111.50Q244 74 221.50 53Q199 32 176.50 14.50Q154-3 138-25.50Q122-48 122-76Q122-121 152.50-155.50Q183-190 243-190Q328-190 385-135M273.50 442.50Q273.50 442.50 280.75 435.25Q288 428 288 407Q288 386 273.50 371.50Q259 357 238 357Q217 357 202.50 371.50Q188 386 188 407Q188 428 202.50 442.50Q217 457 238 457Q259 457 273.50 442.50Z"  horiz-adv-x="471" vert-adv-y="1000"  />

      
      <glyph glyph-name="unic0" unicode="&#xc0;" d="M611 0L528 200L202 200L120 0L30 0L329 700L402 700L700 0L611 0M366 601L230 270L500 270L366 601M302 901L428 775L389 736L263 862L302 901Z"  horiz-adv-x="731" vert-adv-y="1000"  />

      
      <glyph glyph-name="unic1" unicode="&#xc1;" d="M611 0L528 200L202 200L120 0L30 0L329 700L402 700L700 0L611 0M366 601L230 270L500 270L366 601M302 775L428 901L467 862L341 736L302 775Z"  horiz-adv-x="731" vert-adv-y="1000"  />

      
      <glyph glyph-name="unic2" unicode="&#xc2;" d="M611 0L528 200L202 200L120 0L30 0L329 700L402 700L700 0L611 0M366 601L230 270L500 270L366 601M365 901L491 775L452 736L365 823L278 736L239 775L365 901Z"  horiz-adv-x="731" vert-adv-y="1000"  />

      
      <glyph glyph-name="unic3" unicode="&#xc3;" d="M611 0L528 200L202 200L120 0L30 0L329 700L402 700L700 0L611 0M366 601L230 270L500 270L366 601M269 763L226 763Q226 802 249.50 826.50Q273 851 310 851Q342 851 370 827Q398 803 418 803Q436 803 448 815.50Q460 828 460 847L503 847Q503 807 479.50 783Q456 759 418 759Q386 759 358 783Q330 807 311 807Q293 807 281 795Q269 783 269 763Z"  horiz-adv-x="731" vert-adv-y="1000"  />

      
      <glyph glyph-name="unic4" unicode="&#xc4;" d="M611 0L528 200L202 200L120 0L30 0L329 700L402 700L700 0L611 0M366 601L230 270L500 270L366 601M224 797Q224 817 237.50 831Q251 845 271 845Q291 845 305 831Q319 817 319 797Q319 777 305 763.50Q291 750 271 750Q252 750 238 764Q224 778 224 797M425 763.50Q425 763.50 418 770.25Q411 777 411 797Q411 817 425 831Q439 845 459 845Q479 845 493 831Q507 817 507 797Q507 777 493 763.50Q479 750 459 750Q439 750 425 763.50Z"  horiz-adv-x="731" vert-adv-y="1000"  />

      
      <glyph glyph-name="unic5" unicode="&#xc5;" d="M611 0L528 200L202 200L120 0L30 0L329 700L402 700L700 0L611 0M366 601L230 270L500 270L366 601M302.50 755Q302.50 755 290.25 767.50Q278 780 278 820Q278 860 302.50 885Q327 910 366 910Q406 910 430 885.50Q454 861 454 820Q454 779 430 754.50Q406 730 366 730Q327 730 302.50 755M314 819Q314 795 328.50 780.50Q343 766 366 766Q389 766 403.50 780.50Q418 795 418 819Q418 843 403.50 858Q389 873 366 873Q343 873 328.50 858.50Q314 844 314 819Z"  horiz-adv-x="731" vert-adv-y="1000"  />

      
      <glyph glyph-name="unic6" unicode="&#xc6;" d="M457 635L457 385L695 385L695 320L457 320L457 65L732 65L732 0L380 0L380 200L209 200L122 0L32 0L343 700L727 700L727 635L457 635M237 270L380 270L380 601L237 270Z"  horiz-adv-x="782" vert-adv-y="1000"  />

      
      <glyph glyph-name="unic7" unicode="&#xc7;" d="M211.50 557.50Q211.50 557.50 173.25 517.75Q135 478 135 350Q135 222 211.50 142Q288 62 411 62Q537 62 614 142L664 93Q572-2 423-7L423-59Q489-71 489-136Q489-171 466-193Q443-215 406-215Q369-215 345-191L371-165Q385-179 406-179Q427-179 440-167Q453-155 453-134Q453-88 388-88L388-7Q238-1 146.50 97Q55 195 55 350Q55 509 152.50 608Q250 707 407 707Q566 707 664 606L614 556Q536 637 411 637Q288 637 211.50 557.50Z"  horiz-adv-x="709" vert-adv-y="1000"  />

      
      <glyph glyph-name="unic8" unicode="&#xc8;" d="M157 635L157 385L417 385L417 320L157 320L157 65L455 65L455 0L80 0L80 700L450 700L450 635L157 635M202 901L328 775L289 736L163 862L202 901Z"  horiz-adv-x="507" vert-adv-y="1000"  />

      
      <glyph glyph-name="unic9" unicode="&#xc9;" d="M157 635L157 385L417 385L417 320L157 320L157 65L455 65L455 0L80 0L80 700L450 700L450 635L157 635M203 775L329 901L368 862L242 736L203 775Z"  horiz-adv-x="507" vert-adv-y="1000"  />

      
      <glyph glyph-name="unica" unicode="&#xca;" d="M157 635L157 385L417 385L417 320L157 320L157 65L455 65L455 0L80 0L80 700L450 700L450 635L157 635M266 901L392 775L353 736L266 823L179 736L140 775L266 901Z"  horiz-adv-x="507" vert-adv-y="1000"  />

      
      <glyph glyph-name="unicb" unicode="&#xcb;" d="M157 635L157 385L417 385L417 320L157 320L157 65L455 65L455 0L80 0L80 700L450 700L450 635L157 635M124 797Q124 817 137.50 831Q151 845 171 845Q191 845 205 831Q219 817 219 797Q219 777 205 763.50Q191 750 171 750Q152 750 138 764Q124 778 124 797M325 763.50Q325 763.50 318 770.25Q311 777 311 797Q311 817 325 831Q339 845 359 845Q379 845 393 831Q407 817 407 797Q407 777 393 763.50Q379 750 359 750Q339 750 325 763.50Z"  horiz-adv-x="507" vert-adv-y="1000"  />

      
      <glyph glyph-name="unicc" unicode="&#xcc;" d="M77 0L77 700L155 700L155 0L77 0M53 901L179 775L140 736L14 862L53 901Z"  horiz-adv-x="232" vert-adv-y="1000"  />

      
      <glyph glyph-name="unicd" unicode="&#xcd;" d="M77 0L77 700L155 700L155 0L77 0M54 775L180 901L219 862L93 736L54 775Z"  horiz-adv-x="232" vert-adv-y="1000"  />

      
      <glyph glyph-name="unice" unicode="&#xce;" d="M77 0L77 700L155 700L155 0L77 0M116 901L242 775L203 736L116 823L29 736L-10 775L116 901Z"  horiz-adv-x="232" vert-adv-y="1000"  />

      
      <glyph glyph-name="unicf" unicode="&#xcf;" d="M77 0L77 700L155 700L155 0L77 0M-10 797Q-10 817 3.50 831Q17 845 37 845Q57 845 71 831Q85 817 85 797Q85 777 71 763.50Q57 750 37 750Q18 750 4 764Q-10 778-10 797M161 763.50Q161 763.50 154 770.25Q147 777 147 797Q147 817 161 831Q175 845 195 845Q215 845 229 831Q243 817 243 797Q243 777 229 763.50Q215 750 195 750Q175 750 161 763.50Z"  horiz-adv-x="232" vert-adv-y="1000"  />

      
      <glyph glyph-name="unid0" unicode="&#xd0;" d="M50 320L50 380L105 380L105 700L310 700Q468 700 565 604Q662 508 662 350Q662 191 565 95.50Q468 0 310 0L105 0L105 320L50 320M582 350Q582 477 507 554.50Q432 632 310 632L185 632L185 380L345 380L345 320L185 320L185 67L310 67Q432 67 507 144.50Q582 222 582 350Z"  horiz-adv-x="717" vert-adv-y="1000"  />

      
      <glyph glyph-name="unid1" unicode="&#xd1;" d="M80 700L132 700L565 147L565 700L642 700L642 0L590 0L157 553L157 0L80 0L80 700M265 763L222 763Q222 802 245.50 826.50Q269 851 306 851Q338 851 366.50 827Q395 803 414 803Q432 803 444 815.50Q456 828 456 847L499 847Q499 807 475.50 783Q452 759 414 759Q382 759 354 783Q326 807 307 807Q289 807 277 795Q265 783 265 763Z"  horiz-adv-x="722" vert-adv-y="1000"  />

      
      <glyph glyph-name="unid2" unicode="&#xd2;" d="M54 350Q54 509 150.50 608Q247 707 403 707Q559 707 655.50 608Q752 509 752 350Q752 190 655.50 91Q559-8 403-8Q247-8 150.50 91Q54 190 54 350M134 350Q134 222 209 142Q284 62 403 62Q523 62 597.50 142Q672 222 672 350Q672 478 597.50 557.50Q523 637 403 637Q284 637 209 557Q134 477 134 350M340 901L466 775L427 736L301 862L340 901Z"  horiz-adv-x="806" vert-adv-y="1000"  />

      
      <glyph glyph-name="unid3" unicode="&#xd3;" d="M54 350Q54 509 150.50 608Q247 707 403 707Q559 707 655.50 608Q752 509 752 350Q752 190 655.50 91Q559-8 403-8Q247-8 150.50 91Q54 190 54 350M134 350Q134 222 209 142Q284 62 403 62Q523 62 597.50 142Q672 222 672 350Q672 478 597.50 557.50Q523 637 403 637Q284 637 209 557Q134 477 134 350M340 775L466 901L505 862L379 736L340 775Z"  horiz-adv-x="806" vert-adv-y="1000"  />

      
      <glyph glyph-name="unid4" unicode="&#xd4;" d="M54 350Q54 509 150.50 608Q247 707 403 707Q559 707 655.50 608Q752 509 752 350Q752 190 655.50 91Q559-8 403-8Q247-8 150.50 91Q54 190 54 350M134 350Q134 222 209 142Q284 62 403 62Q523 62 597.50 142Q672 222 672 350Q672 478 597.50 557.50Q523 637 403 637Q284 637 209 557Q134 477 134 350M403 901L529 775L490 736L403 823L316 736L277 775L403 901Z"  horiz-adv-x="806" vert-adv-y="1000"  />

      
      <glyph glyph-name="unid5" unicode="&#xd5;" d="M54 350Q54 509 150.50 608Q247 707 403 707Q559 707 655.50 608Q752 509 752 350Q752 190 655.50 91Q559-8 403-8Q247-8 150.50 91Q54 190 54 350M134 350Q134 222 209 142Q284 62 403 62Q523 62 597.50 142Q672 222 672 350Q672 478 597.50 557.50Q523 637 403 637Q284 637 209 557Q134 477 134 350M307 763L264 763Q264 802 287.50 826.50Q311 851 348 851Q380 851 408 827Q436 803 456 803Q474 803 486 815.50Q498 828 498 847L541 847Q541 807 517.50 783Q494 759 456 759Q424 759 396 783Q368 807 349 807Q331 807 319 795Q307 783 307 763Z"  horiz-adv-x="806" vert-adv-y="1000"  />

      
      <glyph glyph-name="unid6" unicode="&#xd6;" d="M54 350Q54 509 150.50 608Q247 707 403 707Q559 707 655.50 608Q752 509 752 350Q752 190 655.50 91Q559-8 403-8Q247-8 150.50 91Q54 190 54 350M134 350Q134 222 209 142Q284 62 403 62Q523 62 597.50 142Q672 222 672 350Q672 478 597.50 557.50Q523 637 403 637Q284 637 209 557Q134 477 134 350M262 797Q262 817 275.50 831Q289 845 309 845Q329 845 343 831Q357 817 357 797Q357 777 343 763.50Q329 750 309 750Q290 750 276 764Q262 778 262 797M463 763.50Q463 763.50 456 770.25Q449 777 449 797Q449 817 463 831Q477 845 497 845Q517 845 531 831Q545 817 545 797Q545 777 531 763.50Q517 750 497 750Q477 750 463 763.50Z"  horiz-adv-x="806" vert-adv-y="1000"  />

      
      <glyph glyph-name="unid7" unicode="&#xd7;" d="M100 130L57 172L175 290L57 407L100 450L217 332L335 450L377 407L260 290L377 172L335 130L217 247L100 130Z"  horiz-adv-x="435" vert-adv-y="1000"  />

      
      <glyph glyph-name="unid8" unicode="&#xd8;" d="M56-8L145 96Q54 195 54 350Q54 509 150.50 608Q247 707 403 707Q525 707 614 643L669 707L750 707L660 602Q752 504 752 350Q752 190 655.50 91Q559-8 403-8Q279-8 191 55L137-8L56-8M134 350Q134 234 196 156L565 586Q496 637 403 637Q284 637 209 557Q134 477 134 350M672 350Q672 464 609 543L241 113Q309 62 403 62Q523 62 597.50 142Q672 222 672 350Z"  horiz-adv-x="806" vert-adv-y="1000"  />

      
      <glyph glyph-name="unid9" unicode="&#xd9;" d="M524 255L524 700L602 700L602 255Q602 137 529.50 64.50Q457-8 340-8Q223-8 151.50 64.50Q80 137 80 255L80 700L157 700L157 255Q157 169 208 115.50Q259 62 340 62Q422 62 473 115.50Q524 169 524 255M277 901L403 775L364 736L238 862L277 901Z"  horiz-adv-x="682" vert-adv-y="1000"  />

      
      <glyph glyph-name="unida" unicode="&#xda;" d="M524 255L524 700L602 700L602 255Q602 137 529.50 64.50Q457-8 340-8Q223-8 151.50 64.50Q80 137 80 255L80 700L157 700L157 255Q157 169 208 115.50Q259 62 340 62Q422 62 473 115.50Q524 169 524 255M278 775L404 901L443 862L317 736L278 775Z"  horiz-adv-x="682" vert-adv-y="1000"  />

      
      <glyph glyph-name="unidb" unicode="&#xdb;" d="M524 255L524 700L602 700L602 255Q602 137 529.50 64.50Q457-8 340-8Q223-8 151.50 64.50Q80 137 80 255L80 700L157 700L157 255Q157 169 208 115.50Q259 62 340 62Q422 62 473 115.50Q524 169 524 255M341 901L467 775L428 736L341 823L254 736L215 775L341 901Z"  horiz-adv-x="682" vert-adv-y="1000"  />

      
      <glyph glyph-name="unidc" unicode="&#xdc;" d="M524 255L524 700L602 700L602 255Q602 137 529.50 64.50Q457-8 340-8Q223-8 151.50 64.50Q80 137 80 255L80 700L157 700L157 255Q157 169 208 115.50Q259 62 340 62Q422 62 473 115.50Q524 169 524 255M199 797Q199 817 212.50 831Q226 845 246 845Q266 845 280 831Q294 817 294 797Q294 777 280 763.50Q266 750 246 750Q226 750 212.50 764Q199 778 199 797M400 763.50Q400 763.50 393 770.25Q386 777 386 797Q386 817 400 831Q414 845 434 845Q454 845 468 831Q482 817 482 797Q482 777 468 763.50Q454 750 434 750Q414 750 400 763.50Z"  horiz-adv-x="682" vert-adv-y="1000"  />

      
      <glyph glyph-name="unidd" unicode="&#xdd;" d="M299 0L299 301L32 700L122 700L338 378L554 700L644 700L377 300L377 0L299 0M276 775L402 901L441 862L315 736L276 775Z"  horiz-adv-x="677" vert-adv-y="1000"  />

      
      <glyph glyph-name="unide" unicode="&#xde;" d="M80 0L80 700L160 700L160 555L270 555Q362 555 418 501.50Q474 448 474 358Q474 269 418 215.50Q362 162 270 162L160 162L160 0L80 0M360 265Q360 265 377 282.50Q394 300 394 358Q394 416 360 451.50Q326 487 270 487L160 487L160 230L270 230Q326 230 360 265Z"  horiz-adv-x="529" vert-adv-y="1000"  />

      
      <glyph glyph-name="unidf" unicode="&#xdf;" d="M150 570L150 0L72 0L72 570Q72 653 127 705Q182 757 270 757Q358 757 413 705Q468 653 468 570Q468 506 434.50 459.50Q401 413 345 397Q345 358 366.50 332Q388 306 418.50 291Q449 276 479.50 260Q510 244 531.50 212.50Q553 181 553 133Q553 76 513.50 34Q474-8 403-8Q311-8 255 53L301 99Q339 56 398 56Q438 56 458 79Q478 102 478 129Q478 160 456.50 181Q435 202 404.50 216.50Q374 231 343.50 249Q313 267 291.50 302Q270 337 270 388L270 450Q323 450 356.50 483Q390 516 390 569Q390 622 356.50 656Q323 690 270 690Q217 690 183.50 656.50Q150 623 150 570Z"  horiz-adv-x="600" vert-adv-y="1000"  />

      
      <glyph glyph-name="unie0" unicode="&#xe0;" d="M418 49L418-1Q406-6 386-6Q322-6 303 45Q248-8 174-8Q111-8 77 29.50Q43 67 43 122Q43 190 93.50 226Q144 262 228 262Q247 262 264 260Q281 258 288 256L296 255L296 315Q296 348 273 371.50Q250 395 202 395Q135 395 99 359L60 398Q119 457 208 457Q287 457 329 416.50Q371 376 371 315L371 88Q371 49 418 49M196 55Q255 55 296 97L296 202Q273 209 234 209Q118 209 118 130Q118 99 137 77Q156 55 196 55M145 676L271 550L232 511L106 637L145 676Z"  horiz-adv-x="453" vert-adv-y="1000"  />

      
      <glyph glyph-name="unie1" unicode="&#xe1;" d="M418 49L418-1Q406-6 386-6Q322-6 303 45Q248-8 174-8Q111-8 77 29.50Q43 67 43 122Q43 190 93.50 226Q144 262 228 262Q247 262 264 260Q281 258 288 256L296 255L296 315Q296 348 273 371.50Q250 395 202 395Q135 395 99 359L60 398Q119 457 208 457Q287 457 329 416.50Q371 376 371 315L371 88Q371 49 418 49M196 55Q255 55 296 97L296 202Q273 209 234 209Q118 209 118 130Q118 99 137 77Q156 55 196 55M149 550L275 676L314 637L188 511L149 550Z"  horiz-adv-x="453" vert-adv-y="1000"  />

      
      <glyph glyph-name="unie2" unicode="&#xe2;" d="M418 49L418-1Q406-6 386-6Q322-6 303 45Q248-8 174-8Q111-8 77 29.50Q43 67 43 122Q43 190 93.50 226Q144 262 228 262Q247 262 264 260Q281 258 288 256L296 255L296 315Q296 348 273 371.50Q250 395 202 395Q135 395 99 359L60 398Q119 457 208 457Q287 457 329 416.50Q371 376 371 315L371 88Q371 49 418 49M196 55Q255 55 296 97L296 202Q273 209 234 209Q118 209 118 130Q118 99 137 77Q156 55 196 55M214 676L340 550L301 511L214 598L127 511L88 550L214 676Z"  horiz-adv-x="453" vert-adv-y="1000"  />

      
      <glyph glyph-name="unie3" unicode="&#xe3;" d="M418 49L418-1Q406-6 386-6Q322-6 303 45Q248-8 174-8Q111-8 77 29.50Q43 67 43 122Q43 190 93.50 226Q144 262 228 262Q247 262 264 260Q281 258 288 256L296 255L296 315Q296 348 273 371.50Q250 395 202 395Q135 395 99 359L60 398Q119 457 208 457Q287 457 329 416.50Q371 376 371 315L371 88Q371 49 418 49M196 55Q255 55 296 97L296 202Q273 209 234 209Q118 209 118 130Q118 99 137 77Q156 55 196 55M125 538L82 538Q82 577 105.50 601.50Q129 626 166 626Q198 626 226 602Q254 578 274 578Q292 578 304 590.50Q316 603 316 622L359 622Q359 582 335.50 558Q312 534 274 534Q242 534 214 558Q186 582 167 582Q149 582 137 570Q125 558 125 538Z"  horiz-adv-x="453" vert-adv-y="1000"  />

      
      <glyph glyph-name="unie4" unicode="&#xe4;" d="M418 49L418-1Q406-6 386-6Q322-6 303 45Q248-8 174-8Q111-8 77 29.50Q43 67 43 122Q43 190 93.50 226Q144 262 228 262Q247 262 264 260Q281 258 288 256L296 255L296 315Q296 348 273 371.50Q250 395 202 395Q135 395 99 359L60 398Q119 457 208 457Q287 457 329 416.50Q371 376 371 315L371 88Q371 49 418 49M196 55Q255 55 296 97L296 202Q273 209 234 209Q118 209 118 130Q118 99 137 77Q156 55 196 55M278 538.50Q278 538.50 271 545.25Q264 552 264 572Q264 592 278 606Q292 620 312 620Q332 620 346 606Q360 592 360 572Q360 552 346 538.50Q332 525 312 525Q292 525 278 538.50M90.50 538.50Q90.50 538.50 83.75 545.25Q77 552 77 572Q77 592 90.50 606Q104 620 124 620Q144 620 158 606Q172 592 172 572Q172 552 158 538.50Q144 525 124 525Q104 525 90.50 538.50Z"  horiz-adv-x="453" vert-adv-y="1000"  />

      
      <glyph glyph-name="unie5" unicode="&#xe5;" d="M418 49L418-1Q406-6 386-6Q322-6 303 45Q248-8 174-8Q111-8 77 29.50Q43 67 43 122Q43 190 93.50 226Q144 262 228 262Q247 262 264 260Q281 258 288 256L296 255L296 315Q296 348 273 371.50Q250 395 202 395Q135 395 99 359L60 398Q119 457 208 457Q287 457 329 416.50Q371 376 371 315L371 88Q371 49 418 49M152.50 530Q152.50 530 140.25 542.50Q128 555 128 595Q128 635 152.50 660Q177 685 216 685Q256 685 280 660.50Q304 636 304 595Q304 554 280 529.50Q256 505 216 505Q177 505 152.50 530M196 55Q255 55 296 97L296 202Q273 209 234 209Q118 209 118 130Q118 99 137 77Q156 55 196 55M164 594Q164 570 178.50 555.50Q193 541 216 541Q239 541 253.50 555.50Q268 570 268 594Q268 618 253.50 633Q239 648 216 648Q193 648 178.50 633.50Q164 619 164 594Z"  horiz-adv-x="453" vert-adv-y="1000"  />

      
      <glyph glyph-name="unie6" unicode="&#xe6;" d="M296 260L296 313Q296 345 273 370Q250 395 206 395Q179 395 150 384.50Q121 374 106 358L64 400Q121 457 212 457Q291 457 331 406Q387 457 472 457Q571 457 624 390.50Q677 324 677 204L371 204L371 112Q414 60 493 60Q569 60 612 106L658 59Q593-8 488-8Q376-8 315 61Q259-8 174-8Q111-8 78 29Q45 66 45 116Q45 184 106.50 223Q168 262 262 262Q280 262 296 260M371 313L371 259L601 259Q595 321 561.50 356Q528 391 473 391Q406 391 368 342Q371 315 371 313M296 102L296 208Q280 210 266 210Q202 210 161.50 186.50Q121 163 121 123Q121 97 139 76Q157 55 197 55Q255 55 296 102Z"  horiz-adv-x="719" vert-adv-y="1000"  />

      
      <glyph glyph-name="unie7" unicode="&#xe7;" d="M165.50 344Q165.50 344 143.75 321Q122 298 122 225Q122 152 165.50 106Q209 60 279 60Q352 60 395 106L442 59Q381-4 287-8L287-59Q353-71 353-136Q353-171 330-193Q307-215 270-215Q233-215 209-191L235-165Q249-179 270-179Q291-179 304-167Q317-155 317-134Q317-88 252-88L252-7Q159 1 102 64Q45 127 45 225Q45 329 108.50 393Q172 457 275 457Q377 457 442 389L395 343Q351 390 279 390Q209 390 165.50 344Z"  horiz-adv-x="477" vert-adv-y="1000"  />

      
      <glyph glyph-name="unie8" unicode="&#xe8;" d="M465 204L124 204Q129 138 171.50 99Q214 60 282 60Q357 60 401 106L446 59Q381-8 277-8Q173-8 109 56.50Q45 121 45 227Q45 330 104.50 393.50Q164 457 262 457Q361 457 413 389.50Q465 322 465 204M262 391Q206 391 168.50 355.50Q131 320 124 259L390 259Q383 321 350 356Q317 391 262 391M197 676L323 550L284 511L158 637L197 676Z"  horiz-adv-x="508" vert-adv-y="1000"  />

      
      <glyph glyph-name="unie9" unicode="&#xe9;" d="M465 204L124 204Q129 138 171.50 99Q214 60 282 60Q357 60 401 106L446 59Q381-8 277-8Q173-8 109 56.50Q45 121 45 227Q45 330 104.50 393.50Q164 457 262 457Q361 457 413 389.50Q465 322 465 204M262 391Q206 391 168.50 355.50Q131 320 124 259L390 259Q383 321 350 356Q317 391 262 391M197 550L323 676L362 637L236 511L197 550Z"  horiz-adv-x="508" vert-adv-y="1000"  />

      
      <glyph glyph-name="uniea" unicode="&#xea;" d="M465 204L124 204Q129 138 171.50 99Q214 60 282 60Q357 60 401 106L446 59Q381-8 277-8Q173-8 109 56.50Q45 121 45 227Q45 330 104.50 393.50Q164 457 262 457Q361 457 413 389.50Q465 322 465 204M262 391Q206 391 168.50 355.50Q131 320 124 259L390 259Q383 321 350 356Q317 391 262 391M260 676L386 550L347 511L260 598L173 511L134 550L260 676Z"  horiz-adv-x="508" vert-adv-y="1000"  />

      
      <glyph glyph-name="unieb" unicode="&#xeb;" d="M465 204L124 204Q129 138 171.50 99Q214 60 282 60Q357 60 401 106L446 59Q381-8 277-8Q173-8 109 56.50Q45 121 45 227Q45 330 104.50 393.50Q164 457 262 457Q361 457 413 389.50Q465 322 465 204M262 391Q206 391 168.50 355.50Q131 320 124 259L390 259Q383 321 350 356Q317 391 262 391M132.50 538.50Q132.50 538.50 125.75 545.25Q119 552 119 572Q119 592 132.50 606Q146 620 166 620Q186 620 200 606Q214 592 214 572Q214 552 200 538.50Q186 525 166 525Q146 525 132.50 538.50M320 538.50Q320 538.50 313 545.25Q306 552 306 572Q306 592 320 606Q334 620 354 620Q374 620 388 606Q402 592 402 572Q402 552 388 538.50Q374 525 354 525Q334 525 320 538.50Z"  horiz-adv-x="508" vert-adv-y="1000"  />

      
      <glyph glyph-name="uniec" unicode="&#xec;" d="M46 676L172 550L133 511L7 637L46 676M72 0L72 450L147 450L147 0L72 0Z"  horiz-adv-x="220" vert-adv-y="1000"  />

      
      <glyph glyph-name="unied" unicode="&#xed;" d="M47 550L173 676L212 637L86 511L47 550M72 0L72 450L147 450L147 0L72 0Z"  horiz-adv-x="220" vert-adv-y="1000"  />

      
      <glyph glyph-name="uniee" unicode="&#xee;" d="M72 0L72 450L147 450L147 0L72 0M110 676L236 550L197 511L110 598L23 511L-16 550L110 676Z"  horiz-adv-x="220" vert-adv-y="1000"  />

      
      <glyph glyph-name="unief" unicode="&#xef;" d="M72 0L72 450L147 450L147 0L72 0M0 538.50Q0 538.50-7 545.25Q-14 552-14 572Q-14 592-0.50 606Q13 620 33 620Q53 620 67 606Q81 592 81 572Q81 552 67 538.50Q53 525 33 525Q14 525 0 538.50M152 538.50Q152 538.50 145 545.25Q138 552 138 572Q138 592 152 606Q166 620 186 620Q206 620 220 606Q234 592 234 572Q234 552 220 538.50Q206 525 186 525Q166 525 152 538.50Z"  horiz-adv-x="220" vert-adv-y="1000"  />

      
      <glyph glyph-name="unif0" unicode="&#xf0;" d="M167 536L137 588L223 637L160 720L227 757L289 675L381 727L411 676L326 627Q432 469 471 390.50Q510 312 510 232Q510 122 446 57Q382-8 278-8Q173-8 109 56.50Q45 121 45 226Q45 329 110 393Q175 457 276 457Q324 457 361 436Q318 508 261 590L167 536M389 106Q389 106 410.50 129Q432 152 432 225Q432 298 389 344Q346 390 277 390Q208 390 165 344Q122 298 122 225Q122 152 165 106Q208 60 277 60Q346 60 389 106Z"  horiz-adv-x="555" vert-adv-y="1000"  />

      
      <glyph glyph-name="unif1" unicode="&#xf1;" d="M72 450L147 450L147 412Q201 457 279 457Q355 457 401.50 406Q448 355 448 272L448 0L373 0L373 272Q373 325 342 357.50Q311 390 261 390Q190 390 147 345L147 0L72 0L72 450M159 538L116 538Q116 577 139.50 601.50Q163 626 200 626Q232 626 260 602Q288 578 308 578Q326 578 338 590.50Q350 603 350 622L393 622Q393 582 369.50 558Q346 534 308 534Q276 534 248 558Q220 582 201 582Q183 582 171 570Q159 558 159 538Z"  horiz-adv-x="520" vert-adv-y="1000"  />

      
      <glyph glyph-name="unif2" unicode="&#xf2;" d="M107.50 56.50Q107.50 56.50 75.75 88.75Q44 121 44 225Q44 329 107.50 393Q171 457 274 457Q377 457 441 392.50Q505 328 505 225Q505 121 441 56.50Q377-8 274-8Q171-8 107.50 56.50M163.50 344.50Q163.50 344.50 142.25 321.75Q121 299 121 225Q121 151 163.50 105.50Q206 60 274 60Q342 60 384.50 106Q427 152 427 225Q427 298 384.50 344Q342 390 274 390Q206 390 163.50 344.50M211 676L337 550L298 511L172 637L211 676Z"  horiz-adv-x="549" vert-adv-y="1000"  />

      
      <glyph glyph-name="unif3" unicode="&#xf3;" d="M107.50 56.50Q107.50 56.50 75.75 88.75Q44 121 44 225Q44 329 107.50 393Q171 457 274 457Q377 457 441 392.50Q505 328 505 225Q505 121 441 56.50Q377-8 274-8Q171-8 107.50 56.50M163.50 344.50Q163.50 344.50 142.25 321.75Q121 299 121 225Q121 151 163.50 105.50Q206 60 274 60Q342 60 384.50 106Q427 152 427 225Q427 298 384.50 344Q342 390 274 390Q206 390 163.50 344.50M212 550L338 676L377 637L251 511L212 550Z"  horiz-adv-x="549" vert-adv-y="1000"  />

      
      <glyph glyph-name="unif4" unicode="&#xf4;" d="M107.50 56.50Q107.50 56.50 75.75 88.75Q44 121 44 225Q44 329 107.50 393Q171 457 274 457Q377 457 441 392.50Q505 328 505 225Q505 121 441 56.50Q377-8 274-8Q171-8 107.50 56.50M163.50 344.50Q163.50 344.50 142.25 321.75Q121 299 121 225Q121 151 163.50 105.50Q206 60 274 60Q342 60 384.50 106Q427 152 427 225Q427 298 384.50 344Q342 390 274 390Q206 390 163.50 344.50M274 676L400 550L361 511L274 598L187 511L148 550L274 676Z"  horiz-adv-x="549" vert-adv-y="1000"  />

      
      <glyph glyph-name="unif5" unicode="&#xf5;" d="M107.50 56.50Q107.50 56.50 75.75 88.75Q44 121 44 225Q44 329 107.50 393Q171 457 274 457Q377 457 441 392.50Q505 328 505 225Q505 121 441 56.50Q377-8 274-8Q171-8 107.50 56.50M163.50 344.50Q163.50 344.50 142.25 321.75Q121 299 121 225Q121 151 163.50 105.50Q206 60 274 60Q342 60 384.50 106Q427 152 427 225Q427 298 384.50 344Q342 390 274 390Q206 390 163.50 344.50M178 538L135 538Q135 577 158.50 601.50Q182 626 219 626Q250 626 279 602Q308 578 327 578Q345 578 357 590.50Q369 603 369 622L412 622Q412 582 388.50 558Q365 534 327 534Q295 534 267 558Q239 582 220 582Q202 582 190 570Q178 558 178 538Z"  horiz-adv-x="549" vert-adv-y="1000"  />

      
      <glyph glyph-name="unif6" unicode="&#xf6;" d="M107.50 56.50Q107.50 56.50 75.75 88.75Q44 121 44 225Q44 329 107.50 393Q171 457 274 457Q377 457 441 392.50Q505 328 505 225Q505 121 441 56.50Q377-8 274-8Q171-8 107.50 56.50M163.50 344.50Q163.50 344.50 142.25 321.75Q121 299 121 225Q121 151 163.50 105.50Q206 60 274 60Q342 60 384.50 106Q427 152 427 225Q427 298 384.50 344Q342 390 274 390Q206 390 163.50 344.50M146.50 538.50Q146.50 538.50 139.75 545.25Q133 552 133 572Q133 592 146.50 606Q160 620 180 620Q200 620 214 606Q228 592 228 572Q228 552 214 538.50Q200 525 180 525Q160 525 146.50 538.50M334 538.50Q334 538.50 327 545.25Q320 552 320 572Q320 592 334 606Q348 620 368 620Q388 620 402 606Q416 592 416 572Q416 552 402 538.50Q388 525 368 525Q348 525 334 538.50Z"  horiz-adv-x="549" vert-adv-y="1000"  />

      
      <glyph glyph-name="unif7" unicode="&#xf7;" d="M60 237L60 297L440 297L440 237L60 237M216.50 69.50Q216.50 69.50 209.75 76.25Q203 83 203 102Q203 121 216.50 134.50Q230 148 250 148Q270 148 283 135Q296 122 296 102Q296 82 283 69Q270 56 250 56Q230 56 216.50 69.50M216.50 399.50Q216.50 399.50 209.75 406.25Q203 413 203 432Q203 451 216.50 464.50Q230 478 250 478Q270 478 283 465Q296 452 296 432Q296 412 283 399Q270 386 250 386Q230 386 216.50 399.50Z"  horiz-adv-x="500" vert-adv-y="1000"  />

      
      <glyph glyph-name="unif8" unicode="&#xf8;" d="M51-8L104 60Q44 123 44 225Q44 329 107.50 393Q171 457 274 457Q338 457 393 428L420 462L497 462L442 392Q505 327 505 225Q505 121 441 56.50Q377-8 274-8Q204-8 152 22L129-8L51-8M432 225Q432 289 398 336L194 75Q229 55 274 55Q344 55 388 102Q432 149 432 225M116 225Q116 159 148 116L352 376Q317 395 274 395Q204 395 160 348Q116 301 116 225Z"  horiz-adv-x="549" vert-adv-y="1000"  />

      
      <glyph glyph-name="unif9" unicode="&#xf9;" d="M458 450L458 185Q458 99 404.50 45.50Q351-8 265-8Q179-8 125.50 45.50Q72 99 72 185L72 450L150 450L150 185Q150 129 182.50 94.50Q215 60 267 60Q319 60 351.50 95Q384 130 384 185L384 450L458 450M201 676L327 550L288 511L162 637L201 676Z"  horiz-adv-x="530" vert-adv-y="1000"  />

      
      <glyph glyph-name="unifa" unicode="&#xfa;" d="M458 450L458 185Q458 99 404.50 45.50Q351-8 265-8Q179-8 125.50 45.50Q72 99 72 185L72 450L150 450L150 185Q150 129 182.50 94.50Q215 60 267 60Q319 60 351.50 95Q384 130 384 185L384 450L458 450M202 550L328 676L367 637L241 511L202 550Z"  horiz-adv-x="530" vert-adv-y="1000"  />

      
      <glyph glyph-name="unifb" unicode="&#xfb;" d="M458 450L458 185Q458 99 404.50 45.50Q351-8 265-8Q179-8 125.50 45.50Q72 99 72 185L72 450L150 450L150 185Q150 129 182.50 94.50Q215 60 267 60Q319 60 351.50 95Q384 130 384 185L384 450L458 450M265 676L391 550L352 511L265 598L178 511L139 550L265 676Z"  horiz-adv-x="530" vert-adv-y="1000"  />

      
      <glyph glyph-name="unifc" unicode="&#xfc;" d="M458 450L458 185Q458 99 404.50 45.50Q351-8 265-8Q179-8 125.50 45.50Q72 99 72 185L72 450L150 450L150 185Q150 129 182.50 94.50Q215 60 267 60Q319 60 351.50 95Q384 130 384 185L384 450L458 450M136.50 538.50Q136.50 538.50 129.75 545.25Q123 552 123 572Q123 592 136.50 606Q150 620 170 620Q190 620 204 606Q218 592 218 572Q218 552 204 538.50Q190 525 170 525Q150 525 136.50 538.50M324 538.50Q324 538.50 317 545.25Q310 552 310 572Q310 592 324 606Q338 620 358 620Q378 620 392 606Q406 592 406 572Q406 552 392 538.50Q378 525 358 525Q338 525 324 538.50Z"  horiz-adv-x="530" vert-adv-y="1000"  />

      
      <glyph glyph-name="unifd" unicode="&#xfd;" d="M477 450L169-250L86-250L211 0L15 450L99 450L246 90L394 450L477 450M183 550L309 676L348 637L222 511L183 550Z"  horiz-adv-x="493" vert-adv-y="1000"  />

      
      <glyph glyph-name="unife" unicode="&#xfe;" d="M72 750L147 750L147 412Q201 457 280 457Q377 457 436.50 393Q496 329 496 225Q496 121 433 56.50Q370-8 268-8Q199-8 147 24L147-250L72-250L72 750M374.50 106Q374.50 106 396.25 129Q418 152 418 225Q418 298 374.50 344Q331 390 261 390Q190 390 147 345L147 102Q189 60 261 60Q331 60 374.50 106Z"  horiz-adv-x="541" vert-adv-y="1000"  />

      
      <glyph glyph-name="uniff" unicode="&#xff;" d="M477 450L169-250L86-250L211 0L15 450L99 450L246 90L394 450L477 450M118.50 538.50Q118.50 538.50 111.75 545.25Q105 552 105 572Q105 592 118.50 606Q132 620 152 620Q172 620 186 606Q200 592 200 572Q200 552 186 538.50Q172 525 152 525Q132 525 118.50 538.50M306 538.50Q306 538.50 299 545.25Q292 552 292 572Q292 592 306 606Q320 620 340 620Q360 620 374 606Q388 592 388 572Q388 552 374 538.50Q360 525 340 525Q320 525 306 538.50Z"  horiz-adv-x="493" vert-adv-y="1000"  />

      
      <glyph glyph-name="uni0100" unicode="&#x0100;" d="M611 0L528 200L202 200L120 0L30 0L329 700L402 700L700 0L611 0M366 601L230 270L500 270L366 601M243 767L243 815L488 815L488 767L243 767Z"  horiz-adv-x="731" vert-adv-y="1000"  />

      
      <glyph glyph-name="uni0101" unicode="&#x0101;" d="M418 49L418-1Q406-6 386-6Q322-6 303 45Q248-8 174-8Q111-8 77 29.50Q43 67 43 122Q43 190 93.50 226Q144 262 228 262Q247 262 264 260Q281 258 288 256L296 255L296 315Q296 348 273 371.50Q250 395 202 395Q135 395 99 359L60 398Q119 457 208 457Q287 457 329 416.50Q371 376 371 315L371 88Q371 49 418 49M196 55Q255 55 296 97L296 202Q273 209 234 209Q118 209 118 130Q118 99 137 77Q156 55 196 55M91 542L91 590L336 590L336 542L91 542Z"  horiz-adv-x="453" vert-adv-y="1000"  />

      
      <glyph glyph-name="uni0102" unicode="&#x0102;" d="M611 0L528 200L202 200L120 0L30 0L329 700L402 700L700 0L611 0M366 601L230 270L500 270L366 601M365 807Q427 807 467 849L506 810Q449 751 365 751Q282 751 224 811L263 850Q304 807 365 807Z"  horiz-adv-x="731" vert-adv-y="1000"  />

      
      <glyph glyph-name="uni0103" unicode="&#x0103;" d="M418 49L418-1Q406-6 386-6Q322-6 303 45Q248-8 174-8Q111-8 77 29.50Q43 67 43 122Q43 190 93.50 226Q144 262 228 262Q247 262 264 260Q281 258 288 256L296 255L296 315Q296 348 273 371.50Q250 395 202 395Q135 395 99 359L60 398Q119 457 208 457Q287 457 329 416.50Q371 376 371 315L371 88Q371 49 418 49M196 55Q255 55 296 97L296 202Q273 209 234 209Q118 209 118 130Q118 99 137 77Q156 55 196 55M216 582Q278 582 318 624L357 585Q300 526 216 526Q133 526 75 586L114 625Q155 582 216 582Z"  horiz-adv-x="453" vert-adv-y="1000"  />

      
      <glyph glyph-name="uni0104" unicode="&#x0104;" d="M637-39Q637-66 652.50-81Q668-96 692-96Q717-96 732-81L760-108Q734-135 692-135Q650-135 624-108.50Q598-82 598-39Q598-17 608 0L611 0L528 200L202 200L120 0L30 0L329 700L402 700L700 0L647 0Q637-17 637-39M366 601L230 270L500 270L366 601Z"  horiz-adv-x="731" vert-adv-y="1000"  />

      
      <glyph glyph-name="uni0105" unicode="&#x0105;" d="M383-39Q383-66 398.50-81Q414-96 438-96Q463-96 478-81L506-108Q480-135 438-135Q396-135 370-108.50Q344-82 344-39Q344-19 353-1Q317 10 303 45Q248-8 174-8Q111-8 77 29.50Q43 67 43 122Q43 190 93.50 226Q144 262 228 262Q247 262 264 260Q281 258 288 256L296 255L296 315Q296 348 273 371.50Q250 395 202 395Q135 395 99 359L60 398Q119 457 208 457Q287 457 329 416.50Q371 376 371 315L371 88Q371 49 418 49L418-1Q406-4 389-6Q383-20 383-39M196 55Q255 55 296 97L296 202Q273 209 234 209Q118 209 118 130Q118 99 137 77Q156 55 196 55Z"  horiz-adv-x="453" vert-adv-y="1000"  />

      
      <glyph glyph-name="uni0106" unicode="&#x0106;" d="M211.50 557.50Q211.50 557.50 173.25 517.75Q135 478 135 350Q135 222 211.50 142Q288 62 411 62Q537 62 614 142L664 93Q566-8 407-8Q250-8 152.50 91Q55 190 55 350Q55 509 152.50 608Q250 707 407 707Q566 707 664 606L614 556Q536 637 411 637Q288 637 211.50 557.50M323 780L449 906L488 867L362 741L323 780Z"  horiz-adv-x="709" vert-adv-y="1000"  />

      
      <glyph glyph-name="uni0107" unicode="&#x0107;" d="M165.50 344Q165.50 344 143.75 321Q122 298 122 225Q122 152 165.50 106Q209 60 279 60Q352 60 395 106L442 59Q377-8 275-8Q172-8 108.50 56.50Q45 121 45 225Q45 329 108.50 393Q172 457 275 457Q377 457 442 389L395 343Q351 390 279 390Q209 390 165.50 344M203 550L329 676L368 637L242 511L203 550Z"  horiz-adv-x="477" vert-adv-y="1000"  />

      
      <glyph glyph-name="uni0108" unicode="&#x0108;" d="M211.50 557.50Q211.50 557.50 173.25 517.75Q135 478 135 350Q135 222 211.50 142Q288 62 411 62Q537 62 614 142L664 93Q566-8 407-8Q250-8 152.50 91Q55 190 55 350Q55 509 152.50 608Q250 707 407 707Q566 707 664 606L614 556Q536 637 411 637Q288 637 211.50 557.50M387 901L513 775L474 736L387 823L300 736L261 775L387 901Z"  horiz-adv-x="709" vert-adv-y="1000"  />

      
      <glyph glyph-name="uni0109" unicode="&#x0109;" d="M165.50 344Q165.50 344 143.75 321Q122 298 122 225Q122 152 165.50 106Q209 60 279 60Q352 60 395 106L442 59Q377-8 275-8Q172-8 108.50 56.50Q45 121 45 225Q45 329 108.50 393Q172 457 275 457Q377 457 442 389L395 343Q351 390 279 390Q209 390 165.50 344M265 676L391 550L352 511L265 598L178 511L139 550L265 676Z"  horiz-adv-x="477" vert-adv-y="1000"  />

      
      <glyph glyph-name="uni010A" unicode="&#x010A;" d="M211.50 557.50Q211.50 557.50 173.25 517.75Q135 478 135 350Q135 222 211.50 142Q288 62 411 62Q537 62 614 142L664 93Q566-8 407-8Q250-8 152.50 91Q55 190 55 350Q55 509 152.50 608Q250 707 407 707Q566 707 664 606L614 556Q536 637 411 637Q288 637 211.50 557.50M351.50 774.50Q351.50 774.50 344.25 781.75Q337 789 337 810Q337 831 351.50 845.50Q366 860 387 860Q408 860 422.50 845.50Q437 831 437 810Q437 789 422.50 774.50Q408 760 387 760Q366 760 351.50 774.50Z"  horiz-adv-x="709" vert-adv-y="1000"  />

      
      <glyph glyph-name="uni010B" unicode="&#x010B;" d="M165.50 344Q165.50 344 143.75 321Q122 298 122 225Q122 152 165.50 106Q209 60 279 60Q352 60 395 106L442 59Q377-8 275-8Q172-8 108.50 56.50Q45 121 45 225Q45 329 108.50 393Q172 457 275 457Q377 457 442 389L395 343Q351 390 279 390Q209 390 165.50 344M227.50 549.50Q227.50 549.50 220.25 556.75Q213 564 213 585Q213 606 227.50 620.50Q242 635 263 635Q284 635 298.50 620.50Q313 606 313 585Q313 564 298.50 549.50Q284 535 263 535Q242 535 227.50 549.50Z"  horiz-adv-x="477" vert-adv-y="1000"  />

      
      <glyph glyph-name="uni010C" unicode="&#x010C;" d="M211.50 557.50Q211.50 557.50 173.25 517.75Q135 478 135 350Q135 222 211.50 142Q288 62 411 62Q537 62 614 142L664 93Q566-8 407-8Q250-8 152.50 91Q55 190 55 350Q55 509 152.50 608Q250 707 407 707Q566 707 664 606L614 556Q536 637 411 637Q288 637 211.50 557.50M385 736L259 862L298 901L385 814L472 901L511 862L385 736Z"  horiz-adv-x="709" vert-adv-y="1000"  />

      
      <glyph glyph-name="uni010D" unicode="&#x010D;" d="M165.50 344Q165.50 344 143.75 321Q122 298 122 225Q122 152 165.50 106Q209 60 279 60Q352 60 395 106L442 59Q377-8 275-8Q172-8 108.50 56.50Q45 121 45 225Q45 329 108.50 393Q172 457 275 457Q377 457 442 389L395 343Q351 390 279 390Q209 390 165.50 344M264 511L138 637L177 676L264 589L351 676L390 637L264 511Z"  horiz-adv-x="477" vert-adv-y="1000"  />

      
      <glyph glyph-name="uni010E" unicode="&#x010E;" d="M80 0L80 700L295 700Q453 700 550 604Q647 508 647 350Q647 191 550 95.50Q453 0 295 0L80 0M567 350Q567 477 492 554.50Q417 632 295 632L160 632L160 67L295 67Q417 67 492 144.50Q567 222 567 350M341 736L215 862L254 901L341 814L428 901L467 862L341 736Z"  horiz-adv-x="702" vert-adv-y="1000"  />

      
      <glyph glyph-name="uni010F" unicode="&#x010F;" d="M468 0L393 0L393 36Q336-8 261-8Q164-8 104.50 56.50Q45 121 45 225Q45 329 108 393Q171 457 273 457Q339 457 393 425L393 750L468 750L468 0M165.50 344Q165.50 344 143.75 321Q122 298 122 225Q122 152 165.50 106Q209 60 279 60Q350 60 393 103L393 347Q350 390 279 390Q209 390 165.50 344M582 558L556 585Q595 626 603 658Q585 661 573 674.50Q561 688 561 707Q561 728 575.50 742.50Q590 757 611 757Q632 757 646.50 743Q661 729 661 699Q661 637 582 558Z"  horiz-adv-x="658" vert-adv-y="1000"  />

      
      <glyph glyph-name="uni0110" unicode="&#x0110;" d="M50 320L50 380L105 380L105 700L310 700Q468 700 565 604Q662 508 662 350Q662 191 565 95.50Q468 0 310 0L105 0L105 320L50 320M582 350Q582 477 507 554.50Q432 632 310 632L185 632L185 380L345 380L345 320L185 320L185 67L310 67Q432 67 507 144.50Q582 222 582 350Z"  horiz-adv-x="717" vert-adv-y="1000"  />

      
      <glyph glyph-name="uni0111" unicode="&#x0111;" d="M468 0L393 0L393 37Q339-8 261-8Q164-8 104.50 56.50Q45 121 45 225Q45 329 108 393Q171 457 273 457Q343 457 393 422L393 577L261 577L261 637L393 637L393 750L468 750L468 637L526 637L526 577L468 577L468 0M165.50 344Q165.50 344 143.75 321Q122 298 122 225Q122 152 165.50 106Q209 60 279 60Q352 60 393 104L393 347Q350 390 279 390Q209 390 165.50 344Z"  horiz-adv-x="556" vert-adv-y="1000"  />

      
      <glyph glyph-name="uni0112" unicode="&#x0112;" d="M157 635L157 385L417 385L417 320L157 320L157 65L455 65L455 0L80 0L80 700L450 700L450 635L157 635M143 767L143 815L388 815L388 767L143 767Z"  horiz-adv-x="507" vert-adv-y="1000"  />

      
      <glyph glyph-name="uni0113" unicode="&#x0113;" d="M465 204L124 204Q129 138 171.50 99Q214 60 282 60Q357 60 401 106L446 59Q381-8 277-8Q173-8 109 56.50Q45 121 45 227Q45 330 104.50 393.50Q164 457 262 457Q361 457 413 389.50Q465 322 465 204M262 391Q206 391 168.50 355.50Q131 320 124 259L390 259Q383 321 350 356Q317 391 262 391M137 542L137 590L382 590L382 542L137 542Z"  horiz-adv-x="508" vert-adv-y="1000"  />

      
      <glyph glyph-name="uni0114" unicode="&#x0114;" d="M157 635L157 385L417 385L417 320L157 320L157 65L455 65L455 0L80 0L80 700L450 700L450 635L157 635M266 807Q328 807 368 849L407 810Q350 751 266 751Q183 751 125 811L164 850Q205 807 266 807Z"  horiz-adv-x="507" vert-adv-y="1000"  />

      
      <glyph glyph-name="uni0115" unicode="&#x0115;" d="M465 204L124 204Q129 138 171.50 99Q214 60 282 60Q357 60 401 106L446 59Q381-8 277-8Q173-8 109 56.50Q45 121 45 227Q45 330 104.50 393.50Q164 457 262 457Q361 457 413 389.50Q465 322 465 204M262 391Q206 391 168.50 355.50Q131 320 124 259L390 259Q383 321 350 356Q317 391 262 391M260 582Q322 582 362 624L401 585Q344 526 260 526Q177 526 119 586L158 625Q199 582 260 582Z"  horiz-adv-x="508" vert-adv-y="1000"  />

      
      <glyph glyph-name="uni0116" unicode="&#x0116;" d="M157 635L157 385L417 385L417 320L157 320L157 65L455 65L455 0L80 0L80 700L450 700L450 635L157 635M230.50 774.50Q230.50 774.50 223.25 781.75Q216 789 216 810Q216 831 230.50 845.50Q245 860 266 860Q287 860 301.50 845.50Q316 831 316 810Q316 789 301.50 774.50Q287 760 266 760Q245 760 230.50 774.50Z"  horiz-adv-x="507" vert-adv-y="1000"  />

      
      <glyph glyph-name="uni0117" unicode="&#x0117;" d="M465 204L124 204Q129 138 171.50 99Q214 60 282 60Q357 60 401 106L446 59Q381-8 277-8Q173-8 109 56.50Q45 121 45 227Q45 330 104.50 393.50Q164 457 262 457Q361 457 413 389.50Q465 322 465 204M262 391Q206 391 168.50 355.50Q131 320 124 259L390 259Q383 321 350 356Q317 391 262 391M225.50 549.50Q225.50 549.50 218.25 556.75Q211 564 211 585Q211 606 225.50 620.50Q240 635 261 635Q282 635 296.50 620.50Q311 606 311 585Q311 564 296.50 549.50Q282 535 261 535Q240 535 225.50 549.50Z"  horiz-adv-x="508" vert-adv-y="1000"  />

      
      <glyph glyph-name="uni0118" unicode="&#x0118;" d="M343-39Q343-66 358.50-81Q374-96 398-96Q423-96 438-81L466-108Q441-135 398-135Q356-135 330-108.50Q304-82 304-39Q304-17 314 0L80 0L80 700L450 700L450 635L157 635L157 385L417 385L417 320L157 320L157 65L455 65L455 0L353 0Q343-17 343-39Z"  horiz-adv-x="507" vert-adv-y="1000"  />

      
      <glyph glyph-name="uni0119" unicode="&#x0119;" d="M328-39Q328-66 343-81Q358-96 383-96Q408-96 423-81L451-108Q425-135 383-135Q341-135 315-108.50Q289-82 289-39Q289-22 295-7Q289-8 277-8Q173-8 109 56.50Q45 121 45 227Q45 330 104.50 393.50Q164 457 262 457Q361 457 413 389.50Q465 322 465 204L124 204Q129 138 171.50 99Q214 60 282 60Q357 60 401 106L446 59Q401 12 337-1Q328-16 328-39M262 391Q206 391 168.50 355.50Q131 320 124 259L390 259Q383 321 350 356Q317 391 262 391Z"  horiz-adv-x="508" vert-adv-y="1000"  />

      
      <glyph glyph-name="uni011A" unicode="&#x011A;" d="M157 635L157 385L417 385L417 320L157 320L157 65L455 65L455 0L80 0L80 700L450 700L450 635L157 635M266 736L140 862L179 901L266 814L353 901L392 862L266 736Z"  horiz-adv-x="507" vert-adv-y="1000"  />

      
      <glyph glyph-name="uni011B" unicode="&#x011B;" d="M465 204L124 204Q129 138 171.50 99Q214 60 282 60Q357 60 401 106L446 59Q381-8 277-8Q173-8 109 56.50Q45 121 45 227Q45 330 104.50 393.50Q164 457 262 457Q361 457 413 389.50Q465 322 465 204M262 391Q206 391 168.50 355.50Q131 320 124 259L390 259Q383 321 350 356Q317 391 262 391M260 511L134 637L173 676L260 589L347 676L386 637L260 511Z"  horiz-adv-x="508" vert-adv-y="1000"  />

      
      <glyph glyph-name="uni011C" unicode="&#x011C;" d="M407 305L407 370L664 370L664 93Q566-8 407-8Q250-8 152.50 91Q55 190 55 350Q55 509 152.50 608Q250 707 407 707Q566 707 664 606L614 556Q536 637 411 637Q288 637 211.50 557.50Q135 478 135 350Q135 222 211.50 142Q288 62 411 62Q516 62 586 121L586 305L407 305M406 901L532 775L493 736L406 823L319 736L280 775L406 901Z"  horiz-adv-x="744" vert-adv-y="1000"  />

      
      <glyph glyph-name="uni011D" unicode="&#x011D;" d="M22-118Q22-75 49.50-43Q77-11 125 5Q67 30 67 80Q67 132 130 156Q52 196 52 293Q52 367 101.50 412Q151 457 230 457Q301 457 350 419Q385 457 434 457Q442 457 460 455L460 395Q448 397 440 397Q410 397 385 379Q407 341 407 295Q407 222 357.50 177Q308 132 228 132Q186 132 163 118Q140 104 140 82Q140 60 168.50 46Q197 32 245 32Q341 32 399-6Q457-44 457-106Q457-173 392-215.50Q327-258 227-258Q134-258 78-219Q22-180 22-118M100-118Q100-155 134-177Q168-199 227-199Q292-199 336-173Q380-147 380-107Q380-71 342.50-49Q305-27 245-27Q179-27 139.50-52Q100-77 100-118M127 295Q127 249 156 220.50Q185 192 231 192Q277 192 305.50 220.50Q334 249 334 295Q334 340 305.50 368.50Q277 397 231 397Q185 397 156 368.50Q127 340 127 295M229 676L355 550L316 511L229 598L142 511L103 550L229 676Z"  horiz-adv-x="495" vert-adv-y="1000"  />

      
      <glyph glyph-name="uni011E" unicode="&#x011E;" d="M407 305L407 370L664 370L664 93Q566-8 407-8Q250-8 152.50 91Q55 190 55 350Q55 509 152.50 608Q250 707 407 707Q566 707 664 606L614 556Q536 637 411 637Q288 637 211.50 557.50Q135 478 135 350Q135 222 211.50 142Q288 62 411 62Q516 62 586 121L586 305L407 305M406 807Q468 807 508 849L547 810Q490 751 406 751Q323 751 265 811L304 850Q345 807 406 807Z"  horiz-adv-x="744" vert-adv-y="1000"  />

      
      <glyph glyph-name="uni011F" unicode="&#x011F;" d="M22-118Q22-75 49.50-43Q77-11 125 5Q67 30 67 80Q67 132 130 156Q52 196 52 293Q52 367 101.50 412Q151 457 230 457Q301 457 350 419Q385 457 434 457Q442 457 460 455L460 395Q448 397 440 397Q410 397 385 379Q407 341 407 295Q407 222 357.50 177Q308 132 228 132Q186 132 163 118Q140 104 140 82Q140 60 168.50 46Q197 32 245 32Q341 32 399-6Q457-44 457-106Q457-173 392-215.50Q327-258 227-258Q134-258 78-219Q22-180 22-118M100-118Q100-155 134-177Q168-199 227-199Q292-199 336-173Q380-147 380-107Q380-71 342.50-49Q305-27 245-27Q179-27 139.50-52Q100-77 100-118M127 295Q127 249 156 220.50Q185 192 231 192Q277 192 305.50 220.50Q334 249 334 295Q334 340 305.50 368.50Q277 397 231 397Q185 397 156 368.50Q127 340 127 295M230 582Q292 582 332 624L371 585Q314 526 230 526Q147 526 89 586L128 625Q169 582 230 582Z"  horiz-adv-x="495" vert-adv-y="1000"  />

      
      <glyph glyph-name="uni0120" unicode="&#x0120;" d="M407 305L407 370L664 370L664 93Q566-8 407-8Q250-8 152.50 91Q55 190 55 350Q55 509 152.50 608Q250 707 407 707Q566 707 664 606L614 556Q536 637 411 637Q288 637 211.50 557.50Q135 478 135 350Q135 222 211.50 142Q288 62 411 62Q516 62 586 121L586 305L407 305M370.50 774.50Q370.50 774.50 363.25 781.75Q356 789 356 810Q356 831 370.50 845.50Q385 860 406 860Q427 860 441.50 845.50Q456 831 456 810Q456 789 441.50 774.50Q427 760 406 760Q385 760 370.50 774.50Z"  horiz-adv-x="744" vert-adv-y="1000"  />

      
      <glyph glyph-name="uni0121" unicode="&#x0121;" d="M22-118Q22-75 49.50-43Q77-11 125 5Q67 30 67 80Q67 132 130 156Q52 196 52 293Q52 367 101.50 412Q151 457 230 457Q301 457 350 419Q385 457 434 457Q442 457 460 455L460 395Q448 397 440 397Q410 397 385 379Q407 341 407 295Q407 222 357.50 177Q308 132 228 132Q186 132 163 118Q140 104 140 82Q140 60 168.50 46Q197 32 245 32Q341 32 399-6Q457-44 457-106Q457-173 392-215.50Q327-258 227-258Q134-258 78-219Q22-180 22-118M100-118Q100-155 134-177Q168-199 227-199Q292-199 336-173Q380-147 380-107Q380-71 342.50-49Q305-27 245-27Q179-27 139.50-52Q100-77 100-118M127 295Q127 249 156 220.50Q185 192 231 192Q277 192 305.50 220.50Q334 249 334 295Q334 340 305.50 368.50Q277 397 231 397Q185 397 156 368.50Q127 340 127 295M192.50 549.50Q192.50 549.50 185.25 556.75Q178 564 178 585Q178 606 192.50 620.50Q207 635 228 635Q249 635 263.50 620.50Q278 606 278 585Q278 564 263.50 549.50Q249 535 228 535Q207 535 192.50 549.50Z"  horiz-adv-x="495" vert-adv-y="1000"  />

      
      <glyph glyph-name="uni0122" unicode="&#x0122;" d="M407 305L407 370L664 370L664 93Q566-8 407-8Q250-8 152.50 91Q55 190 55 350Q55 509 152.50 608Q250 707 407 707Q566 707 664 606L614 556Q536 637 411 637Q288 637 211.50 557.50Q135 478 135 350Q135 222 211.50 142Q288 62 411 62Q516 62 586 121L586 305L407 305M374-219L351-197Q387-159 392-132Q377-130 366.50-118Q356-106 356-90Q356-72 368.50-60Q381-48 399-48Q417-48 429-60Q441-72 441-97Q441-154 374-219Z"  horiz-adv-x="744" vert-adv-y="1000"  />

      
      <glyph glyph-name="uni0123" unicode="&#x0123;" d="M22-118Q22-75 49.50-43Q77-11 125 5Q67 30 67 80Q67 132 130 156Q52 196 52 293Q52 367 101.50 412Q151 457 230 457Q301 457 350 419Q385 457 434 457Q442 457 460 455L460 395Q448 397 440 397Q410 397 385 379Q407 341 407 295Q407 222 357.50 177Q308 132 228 132Q186 132 163 118Q140 104 140 82Q140 60 168.50 46Q197 32 245 32Q341 32 399-6Q457-44 457-106Q457-173 392-215.50Q327-258 227-258Q134-258 78-219Q22-180 22-118M100-118Q100-155 134-177Q168-199 227-199Q292-199 336-173Q380-147 380-107Q380-71 342.50-49Q305-27 245-27Q179-27 139.50-52Q100-77 100-118M127 295Q127 249 156 220.50Q185 192 231 192Q277 192 305.50 220.50Q334 249 334 295Q334 340 305.50 368.50Q277 397 231 397Q185 397 156 368.50Q127 340 127 295M257 684L280 662Q244 624 239 597Q254 595 264.50 583Q275 571 275 555Q275 537 262.50 525Q250 513 232 513Q214 513 202 525Q190 537 190 562Q190 619 257 684Z"  horiz-adv-x="495" vert-adv-y="1000"  />

      
      <glyph glyph-name="uni0124" unicode="&#x0124;" d="M157 700L157 385L542 385L542 700L620 700L620 0L542 0L542 320L157 320L157 0L80 0L80 700L157 700M350 901L476 775L437 736L350 823L263 736L224 775L350 901Z"  horiz-adv-x="700" vert-adv-y="1000"  />

      
      <glyph glyph-name="uni0125" unicode="&#x0125;" d="M72 750L147 750L147 412Q201 457 279 457Q355 457 401.50 406Q448 355 448 272L448 0L373 0L373 272Q373 325 342 357.50Q311 390 261 390Q190 390 147 345L147 0L72 0L72 750M274 911L400 785L361 746L274 833L187 746L148 785L274 911Z"  horiz-adv-x="523" vert-adv-y="1000"  />

      
      <glyph glyph-name="uni0126" unicode="&#x0126;" d="M105 0L105 510L45 510L45 570L105 570L105 700L182 700L182 570L522 570L522 700L600 700L600 570L665 570L665 510L600 510L600 0L522 0L522 320L182 320L182 0L105 0M182 385L522 385L522 510L182 510L182 385Z"  horiz-adv-x="710" vert-adv-y="1000"  />

      
      <glyph glyph-name="uni0127" unicode="&#x0127;" d="M30 590L30 650L87 650L87 750L162 750L162 650L335 650L335 590L162 590L162 412Q216 457 294 457Q370 457 416.50 406Q463 355 463 272L463 0L388 0L388 272Q388 325 357 357.50Q326 390 276 390Q205 390 162 345L162 0L87 0L87 590L30 590Z"  horiz-adv-x="538" vert-adv-y="1000"  />

      
      <glyph glyph-name="uni0128" unicode="&#x0128;" d="M77 0L77 700L155 700L155 0L77 0M21 763L-22 763Q-22 802 1.50 826.50Q25 851 62 851Q94 851 122 827Q150 803 170 803Q188 803 200 815.50Q212 828 212 847L255 847Q255 807 231.50 783Q208 759 170 759Q138 759 110 783Q82 807 63 807Q45 807 33 795Q21 783 21 763Z"  horiz-adv-x="232" vert-adv-y="1000"  />

      
      <glyph glyph-name="uni0129" unicode="&#x0129;" d="M14 538L-29 538Q-29 577-5.50 601.50Q18 626 55 626Q86 626 115 602Q144 578 163 578Q181 578 193 590.50Q205 603 205 622L248 622Q248 582 224.50 558Q201 534 163 534Q131 534 103 558Q75 582 56 582Q38 582 26 570Q14 558 14 538M72 0L72 450L147 450L147 0L72 0Z"  horiz-adv-x="220" vert-adv-y="1000"  />

      
      <glyph glyph-name="uni012A" unicode="&#x012A;" d="M77 0L77 700L155 700L155 0L77 0M-6 767L-6 815L239 815L239 767L-6 767Z"  horiz-adv-x="232" vert-adv-y="1000"  />

      
      <glyph glyph-name="uni012B" unicode="&#x012B;" d="M-13 542L-13 590L232 590L232 542L-13 542M72 0L72 450L147 450L147 0L72 0Z"  horiz-adv-x="220" vert-adv-y="1000"  />

      
      <glyph glyph-name="uni012C" unicode="&#x012C;" d="M77 0L77 700L155 700L155 0L77 0M116 807Q178 807 218 849L257 810Q200 751 116 751Q33 751-25 811L14 850Q55 807 116 807Z"  horiz-adv-x="232" vert-adv-y="1000"  />

      
      <glyph glyph-name="uni012D" unicode="&#x012D;" d="M110 582Q172 582 212 624L251 585Q194 526 110 526Q27 526-31 586L8 625Q49 582 110 582M72 0L72 450L147 450L147 0L72 0Z"  horiz-adv-x="220" vert-adv-y="1000"  />

      
      <glyph glyph-name="uni012E" unicode="&#x012E;" d="M77 0L77 700L155 700L155 0L77 0M106-39Q106-66 121-81Q136-96 161-96Q186-96 201-81L229-108Q204-135 161-135Q119-135 93-108.50Q67-82 67-39Q67-17 77 0L116 0Q106-17 106-39Z"  horiz-adv-x="232" vert-adv-y="1000"  />

      
      <glyph glyph-name="uni012F" unicode="&#x012F;" d="M72 0L72 450L147 450L147 0L72 0M74.50 549.50Q74.50 549.50 67.25 556.75Q60 564 60 585Q60 606 74.50 620.50Q89 635 110 635Q131 635 145.50 620.50Q160 606 160 585Q160 564 145.50 549.50Q131 535 110 535Q89 535 74.50 549.50M101-39Q101-66 116.50-81Q132-96 156-96Q181-96 196-81L224-108Q198-135 156-135Q114-135 88-108.50Q62-82 62-39Q62-17 72 0L111 0Q101-17 101-39Z"  horiz-adv-x="220" vert-adv-y="1000"  />

      
      <glyph glyph-name="uni0130" unicode="&#x0130;" d="M77 0L77 700L155 700L155 0L77 0M80.50 774.50Q80.50 774.50 73.25 781.75Q66 789 66 810Q66 831 80.50 845.50Q95 860 116 860Q137 860 151.50 845.50Q166 831 166 810Q166 789 151.50 774.50Q137 760 116 760Q95 760 80.50 774.50Z"  horiz-adv-x="232" vert-adv-y="1000"  />

      
      <glyph glyph-name="uni0131" unicode="&#x0131;" d="M72 0L72 450L147 450L147 0L72 0Z"  horiz-adv-x="220" vert-adv-y="1000"  />

      
      <glyph glyph-name="uni0132" unicode="&#x0132;" d="M80 250L80 700L157 700L157 250L80 250M357 190L357 700L435 700L435 190Q435 102 380 47Q325-8 238-8Q149-8 95 48L145 98Q179 62 235 62Q289 62 323 97.50Q357 133 357 190Z"  horiz-adv-x="512" vert-adv-y="1000"  />

      
      <glyph glyph-name="uni0133" unicode="&#x0133;" d="M72 0L72 450L147 450L147 0L72 0M74.50 549.50Q74.50 549.50 67.25 556.75Q60 564 60 585Q60 606 74.50 620.50Q89 635 110 635Q131 635 145.50 620.50Q160 606 160 585Q160 564 145.50 549.50Q131 535 110 535Q89 535 74.50 549.50M294.50 549.50Q294.50 549.50 287.25 556.75Q280 564 280 585Q280 606 294.50 620.50Q309 635 330 635Q351 635 365.50 620.50Q380 606 380 585Q380 564 365.50 549.50Q351 535 330 535Q309 535 294.50 549.50M227-250L227-200Q292-200 292-137L292 450L367 450L367-139Q367-193 338.50-224Q310-255 262-255Q239-255 227-250Z"  horiz-adv-x="440" vert-adv-y="1000"  />

      
      <glyph glyph-name="uni0134" unicode="&#x0134;" d="M307 190L307 700L385 700L385 190Q385 102 330 47Q275-8 188-8Q99-8 45 48L95 98Q129 62 185 62Q239 62 273 97.50Q307 133 307 190M346 901L472 775L433 736L346 823L259 736L220 775L346 901Z"  horiz-adv-x="462" vert-adv-y="1000"  />

      
      <glyph glyph-name="uni0135" unicode="&#x0135;" d="M7-250L7-200Q72-200 72-137L72 450L147 450L147-139Q147-193 118.50-224Q90-255 42-255Q19-255 7-250M110 676L236 550L197 511L110 598L23 511L-16 550L110 676Z"  horiz-adv-x="220" vert-adv-y="1000"  />

      
      <glyph glyph-name="uni0136" unicode="&#x0136;" d="M77 0L77 700L155 700L155 0L77 0M472 0L164 359L452 700L549 700L262 359L572 0L472 0M280-219L257-197Q293-159 298-132Q283-130 272.50-118Q262-106 262-90Q262-72 274.50-60Q287-48 305-48Q323-48 335-60Q347-72 347-97Q347-154 280-219Z"  horiz-adv-x="607" vert-adv-y="1000"  />

      
      <glyph glyph-name="uni0137" unicode="&#x0137;" d="M147 0L72 0L72 750L147 750L147 247L325 450L415 450L227 239L436 0L347 0L147 231L147 0M210-219L187-197Q223-159 228-132Q213-130 202.50-118Q192-106 192-90Q192-72 204.50-60Q217-48 235-48Q253-48 265-60Q277-72 277-97Q277-154 210-219Z"  horiz-adv-x="459" vert-adv-y="1000"  />

      
      <glyph glyph-name="uni0139" unicode="&#x0139;" d="M157 700L157 65L430 65L430 0L80 0L80 700L157 700M155 775L281 901L320 862L194 736L155 775Z"  horiz-adv-x="475" vert-adv-y="1000"  />

      
      <glyph glyph-name="uni013A" unicode="&#x013A;" d="M215 50L215 0Q203-5 178-5Q129-5 100.50 26Q72 57 72 111L72 750L147 750L147 113Q147 50 215 50M41 810L167 936L206 897L80 771L41 810Z"  horiz-adv-x="247" vert-adv-y="1000"  />

      
      <glyph glyph-name="uni013B" unicode="&#x013B;" d="M157 700L157 65L430 65L430 0L80 0L80 700L157 700M230-219L207-197Q243-159 248-132Q233-130 222.50-118Q212-106 212-90Q212-72 224.50-60Q237-48 255-48Q273-48 285-60Q297-72 297-97Q297-154 230-219Z"  horiz-adv-x="475" vert-adv-y="1000"  />

      
      <glyph glyph-name="uni013C" unicode="&#x013C;" d="M215 50L215 0Q203-5 178-5Q129-5 100.50 26Q72 57 72 111L72 750L147 750L147 113Q147 50 215 50M111-219L88-197Q124-159 129-132Q114-130 103.50-118Q93-106 93-90Q93-72 105.50-60Q118-48 136-48Q154-48 166-60Q178-72 178-97Q178-154 111-219Z"  horiz-adv-x="247" vert-adv-y="1000"  />

      
      <glyph glyph-name="uni013D" unicode="&#x013D;" d="M157 700L157 65L430 65L430 0L80 0L80 700L157 700M119 736L-7 862L32 901L119 814L206 901L245 862L119 736Z"  horiz-adv-x="475" vert-adv-y="1000"  />

      
      <glyph glyph-name="uni013E" unicode="&#x013E;" d="M215 50L215 0Q203-5 178-5Q129-5 100.50 26Q72 57 72 111L72 750L147 750L147 113Q147 50 215 50M273 558L247 585Q286 626 294 658Q276 661 264 674.50Q252 688 252 707Q252 728 266.50 742.50Q281 757 302 757Q323 757 337.50 743Q352 729 352 699Q352 637 273 558Z"  horiz-adv-x="372" vert-adv-y="1000"  />

      
      <glyph glyph-name="uni013F" unicode="&#x013F;" d="M157 700L157 65L430 65L430 0L80 0L80 700L157 700M319.50 289.50Q319.50 289.50 312.25 296.75Q305 304 305 325Q305 346 319.50 360.50Q334 375 355 375Q376 375 390.50 360.50Q405 346 405 325Q405 304 390.50 289.50Q376 275 355 275Q334 275 319.50 289.50Z"  horiz-adv-x="475" vert-adv-y="1000"  />

      
      <glyph glyph-name="uni0140" unicode="&#x0140;" d="M215 50L215 0Q203-5 178-5Q129-5 100.50 26Q72 57 72 111L72 750L147 750L147 113Q147 50 215 50M264.50 289.50Q264.50 289.50 257.25 296.75Q250 304 250 325Q250 346 264.50 360.50Q279 375 300 375Q321 375 335.50 360.50Q350 346 350 325Q350 304 335.50 289.50Q321 275 300 275Q279 275 264.50 289.50Z"  horiz-adv-x="378" vert-adv-y="1000"  />

      
      <glyph glyph-name="uni0141" unicode="&#x0141;" d="M15 233L109 327L109 700L187 700L187 388L276 477L315 438L187 310L187 65L459 65L459 0L109 0L109 249L54 194L15 233Z"  horiz-adv-x="504" vert-adv-y="1000"  />

      
      <glyph glyph-name="uni0142" unicode="&#x0142;" d="M242 50L242 0Q230-5 205-5Q157-5 128.50 26Q100 57 100 111L100 282L46 229L7 268L100 360L100 750L175 750L175 418L236 479L275 440L175 340L175 113Q175 50 242 50Z"  horiz-adv-x="292" vert-adv-y="1000"  />

      
      <glyph glyph-name="uni0143" unicode="&#x0143;" d="M80 700L132 700L565 147L565 700L642 700L642 0L590 0L157 553L157 0L80 0L80 700M298 775L424 901L463 862L337 736L298 775Z"  horiz-adv-x="722" vert-adv-y="1000"  />

      
      <glyph glyph-name="uni0144" unicode="&#x0144;" d="M72 450L147 450L147 412Q201 457 279 457Q355 457 401.50 406Q448 355 448 272L448 0L373 0L373 272Q373 325 342 357.50Q311 390 261 390Q190 390 147 345L147 0L72 0L72 450M197 550L323 676L362 637L236 511L197 550Z"  horiz-adv-x="520" vert-adv-y="1000"  />

      
      <glyph glyph-name="uni0145" unicode="&#x0145;" d="M80 700L132 700L565 147L565 700L642 700L642 0L590 0L157 553L157 0L80 0L80 700M338-219L315-197Q351-159 356-132Q341-130 330.50-118Q320-106 320-90Q320-72 332.50-60Q345-48 363-48Q381-48 393-60Q405-72 405-97Q405-154 338-219Z"  horiz-adv-x="722" vert-adv-y="1000"  />

      
      <glyph glyph-name="uni0146" unicode="&#x0146;" d="M72 450L147 450L147 412Q201 457 279 457Q355 457 401.50 406Q448 355 448 272L448 0L373 0L373 272Q373 325 342 357.50Q311 390 261 390Q190 390 147 345L147 0L72 0L72 450M235-219L212-197Q248-159 253-132Q238-130 227.50-118Q217-106 217-90Q217-72 229.50-60Q242-48 260-48Q278-48 290-60Q302-72 302-97Q302-154 235-219Z"  horiz-adv-x="520" vert-adv-y="1000"  />

      
      <glyph glyph-name="uni0147" unicode="&#x0147;" d="M80 700L132 700L565 147L565 700L642 700L642 0L590 0L157 553L157 0L80 0L80 700M361 736L235 862L274 901L361 814L448 901L487 862L361 736Z"  horiz-adv-x="722" vert-adv-y="1000"  />

      
      <glyph glyph-name="uni0148" unicode="&#x0148;" d="M72 450L147 450L147 412Q201 457 279 457Q355 457 401.50 406Q448 355 448 272L448 0L373 0L373 272Q373 325 342 357.50Q311 390 261 390Q190 390 147 345L147 0L72 0L72 450M260 511L134 637L173 676L260 589L347 676L386 637L260 511Z"  horiz-adv-x="520" vert-adv-y="1000"  />

      
      <glyph glyph-name="uni014A" unicode="&#x014A;" d="M510-250L510-200Q535-200 550-186.50Q565-173 565-147L565 28L157 553L157 0L80 0L80 700L132 700L565 147L565 700L642 700L642-149Q642-198 615-226.50Q588-255 543-255Q522-255 510-250Z"  horiz-adv-x="722" vert-adv-y="1000"  />

      
      <glyph glyph-name="uni014B" unicode="&#x014B;" d="M308-250L308-200Q373-200 373-137L373 272Q373 325 341.50 357.50Q310 390 257 390Q190 390 147 345L147 0L72 0L72 450L147 450L147 412Q201 457 276 457Q355 457 401.50 406Q448 355 448 272L448-139Q448-193 419.50-224Q391-255 342-255Q320-255 308-250Z"  horiz-adv-x="520" vert-adv-y="1000"  />

      
      <glyph glyph-name="uni014C" unicode="&#x014C;" d="M54 350Q54 509 150.50 608Q247 707 403 707Q559 707 655.50 608Q752 509 752 350Q752 190 655.50 91Q559-8 403-8Q247-8 150.50 91Q54 190 54 350M134 350Q134 222 209 142Q284 62 403 62Q523 62 597.50 142Q672 222 672 350Q672 478 597.50 557.50Q523 637 403 637Q284 637 209 557Q134 477 134 350M281 767L281 815L526 815L526 767L281 767Z"  horiz-adv-x="806" vert-adv-y="1000"  />

      
      <glyph glyph-name="uni014D" unicode="&#x014D;" d="M107.50 56.50Q107.50 56.50 75.75 88.75Q44 121 44 225Q44 329 107.50 393Q171 457 274 457Q377 457 441 392.50Q505 328 505 225Q505 121 441 56.50Q377-8 274-8Q171-8 107.50 56.50M163.50 344.50Q163.50 344.50 142.25 321.75Q121 299 121 225Q121 151 163.50 105.50Q206 60 274 60Q342 60 384.50 106Q427 152 427 225Q427 298 384.50 344Q342 390 274 390Q206 390 163.50 344.50M152 542L152 590L397 590L397 542L152 542Z"  horiz-adv-x="549" vert-adv-y="1000"  />

      
      <glyph glyph-name="uni014E" unicode="&#x014E;" d="M54 350Q54 509 150.50 608Q247 707 403 707Q559 707 655.50 608Q752 509 752 350Q752 190 655.50 91Q559-8 403-8Q247-8 150.50 91Q54 190 54 350M134 350Q134 222 209 142Q284 62 403 62Q523 62 597.50 142Q672 222 672 350Q672 478 597.50 557.50Q523 637 403 637Q284 637 209 557Q134 477 134 350M403 807Q465 807 505 849L544 810Q487 751 403 751Q320 751 262 811L301 850Q342 807 403 807Z"  horiz-adv-x="806" vert-adv-y="1000"  />

      
      <glyph glyph-name="uni014F" unicode="&#x014F;" d="M107.50 56.50Q107.50 56.50 75.75 88.75Q44 121 44 225Q44 329 107.50 393Q171 457 274 457Q377 457 441 392.50Q505 328 505 225Q505 121 441 56.50Q377-8 274-8Q171-8 107.50 56.50M163.50 344.50Q163.50 344.50 142.25 321.75Q121 299 121 225Q121 151 163.50 105.50Q206 60 274 60Q342 60 384.50 106Q427 152 427 225Q427 298 384.50 344Q342 390 274 390Q206 390 163.50 344.50M274 582Q336 582 376 624L415 585Q358 526 274 526Q191 526 133 586L172 625Q213 582 274 582Z"  horiz-adv-x="549" vert-adv-y="1000"  />

      
      <glyph glyph-name="uni0150" unicode="&#x0150;" d="M54 350Q54 509 150.50 608Q247 707 403 707Q559 707 655.50 608Q752 509 752 350Q752 190 655.50 91Q559-8 403-8Q247-8 150.50 91Q54 190 54 350M134 350Q134 222 209 142Q284 62 403 62Q523 62 597.50 142Q672 222 672 350Q672 478 597.50 557.50Q523 637 403 637Q284 637 209 557Q134 477 134 350M266 775L392 901L431 862L305 736L266 775M416 775L542 901L581 862L455 736L416 775Z"  horiz-adv-x="806" vert-adv-y="1000"  />

      
      <glyph glyph-name="uni0151" unicode="&#x0151;" d="M107.50 56.50Q107.50 56.50 75.75 88.75Q44 121 44 225Q44 329 107.50 393Q171 457 274 457Q377 457 441 392.50Q505 328 505 225Q505 121 441 56.50Q377-8 274-8Q171-8 107.50 56.50M163.50 344.50Q163.50 344.50 142.25 321.75Q121 299 121 225Q121 151 163.50 105.50Q206 60 274 60Q342 60 384.50 106Q427 152 427 225Q427 298 384.50 344Q342 390 274 390Q206 390 163.50 344.50M137 550L263 676L302 637L176 511L137 550M287 550L413 676L452 637L326 511L287 550Z"  horiz-adv-x="549" vert-adv-y="1000"  />

      
      </font>
</defs>
</svg>
